<svg width="83" height="83" viewBox="0 0 83 83" fill="none" xmlns="http://www.w3.org/2000/svg">
<path d="M0.00837054 41.0156C-0.147879 31.6406 1.92243 22.7344 6.21931 14.2969C10.5162 5.85938 17.3131 1.09375 26.6099 0C35.8287 1.17188 42.7037 5.9375 47.2349 14.2969C51.7662 22.6562 53.9146 31.5625 53.6802 41.0156C53.8365 50.4688 51.6881 59.4531 47.2349 67.9688C42.7818 76.4062 35.9068 81.1719 26.6099 82.2656C17.2349 81.1719 10.399 76.3672 6.10212 67.8516C1.88337 59.2578 -0.147879 50.3125 0.00837054 41.0156ZM8.56306 41.0156C8.56306 45.625 9.149 50.1953 10.3209 54.7266C11.4927 59.1797 13.4068 63.2422 16.0631 66.9141C18.7193 70.5859 22.2349 72.6562 26.6099 73.125C30.8287 72.6562 34.2662 70.5859 36.9224 66.9141C39.5787 63.2422 41.4927 59.1797 42.6646 54.7266C43.8365 50.1953 44.4615 45.625 44.5396 41.0156C44.4615 36.3281 43.8365 31.7578 42.6646 27.3047C41.4927 22.8516 39.5787 18.75 36.9224 15C34.2662 11.25 30.8287 9.14062 26.6099 8.67188C22.2349 9.14062 18.7193 11.25 16.0631 15C13.4068 18.75 11.4927 22.8516 10.3209 27.3047C9.149 31.7578 8.56306 36.3281 8.56306 41.0156Z" fill="#F7CC2E"/>
<path d="M75.1959 3.39844C76.524 2.38281 78.0084 1.99219 79.649 2.22656C81.3677 3.00781 82.3052 4.41406 82.4615 6.44531V76.1719C81.9927 78.9844 80.5474 80.5469 78.1256 80.8594C75.6256 80.4688 74.3365 78.9062 74.2584 76.1719V16.9922C74.1021 18.9453 73.3209 20.7031 71.9146 22.2656C69.4927 25.3906 66.9537 28.1641 64.2974 30.5859C62.2662 32.2266 60.3912 32.0312 58.6724 30C57.8912 27.9688 58.0865 26.0156 59.2584 24.1406C61.7584 21.25 64.2193 18.4766 66.6412 15.8203C69.6099 11.9141 72.4615 7.77344 75.1959 3.39844Z" fill="#F7CC2E"/>
</svg>
