<svg width="108" height="83" viewBox="0 0 108 83" fill="none" xmlns="http://www.w3.org/2000/svg">
<path d="M0.00837054 41.0156C-0.147879 31.6406 1.92243 22.7344 6.21931 14.2969C10.5162 5.85938 17.3131 1.09375 26.6099 0C35.8287 1.17188 42.7037 5.9375 47.2349 14.2969C51.7662 22.6562 53.9146 31.5625 53.6802 41.0156C53.8365 50.4688 51.6881 59.4531 47.2349 67.9688C42.7818 76.4062 35.9068 81.1719 26.6099 82.2656C17.2349 81.1719 10.399 76.3672 6.10212 67.8516C1.88337 59.2578 -0.147879 50.3125 0.00837054 41.0156ZM8.56306 41.0156C8.56306 45.625 9.149 50.1953 10.3209 54.7266C11.4927 59.1797 13.4068 63.2422 16.0631 66.9141C18.7193 70.5859 22.2349 72.6562 26.6099 73.125C30.8287 72.6562 34.2662 70.5859 36.9224 66.9141C39.5787 63.2422 41.4927 59.1797 42.6646 54.7266C43.8365 50.1953 44.4615 45.625 44.5396 41.0156C44.4615 36.3281 43.8365 31.7578 42.6646 27.3047C41.4927 22.8516 39.5787 18.75 36.9224 15C34.2662 11.25 30.8287 9.14062 26.6099 8.67188C22.2349 9.14062 18.7193 11.25 16.0631 15C13.4068 18.75 11.4927 22.8516 10.3209 27.3047C9.149 31.7578 8.56306 36.3281 8.56306 41.0156Z" fill="#F7CC2E"/>
<path d="M81.9927 0C94.4927 0.78125 102.227 7.96875 105.196 21.5625C105.821 24.1406 106.211 26.7578 106.368 29.4141C105.43 41.5234 100.586 51.4453 91.8365 59.1797C87.3834 63.4766 82.774 67.4609 78.0084 71.1328C76.9927 71.6797 76.4459 72.2656 76.3677 72.8906H103.204C105.86 73.4375 107.305 75.0391 107.54 77.6953C107.227 80.3516 105.782 81.7578 103.204 81.9141H63.4771C61.2896 81.9141 59.8443 80.9375 59.1412 78.9844C58.4381 77.0312 58.8287 75.4297 60.3131 74.1797C64.2974 70.7422 68.399 67.3438 72.6177 63.9844C77.2271 60.7031 81.6412 57.1484 85.8599 53.3203C89.6099 49.5703 92.6568 45.1172 95.0006 39.9609C97.4224 34.8047 98.0865 29.2969 96.9927 23.4375C95.0396 14.1406 90.0396 9.14062 81.9927 8.4375C70.5084 8.90625 64.4927 15.8984 63.9459 29.4141C63.3209 32.0703 61.6802 33.4375 59.024 33.5156C56.7584 32.8125 55.6256 31.2109 55.6256 28.7109C56.4849 10.1953 65.274 0.625 81.9927 0Z" fill="#F7CC2E"/>
</svg>
