<svg width="610" height="396" viewBox="0 0 610 396" fill="none" xmlns="http://www.w3.org/2000/svg">
<rect x="1.5" y="2" width="607" height="392" fill="white"/>
<mask id="mask0_928_95900" style="mask-type:alpha" maskUnits="userSpaceOnUse" x="27" y="76" width="575" height="231">
<rect x="27" y="76" width="575" height="231" fill="#D9D9D9"/>
</mask>
<g mask="url(#mask0_928_95900)">
<path d="M36.7271 209.73C36.7271 210.121 37.0536 210.448 37.4453 210.448C37.848 210.448 38.1745 210.121 38.1745 209.73C38.1745 209.327 37.848 209 37.4453 209C37.0536 209 36.7271 209.327 36.7271 209.73ZM36.2265 209.73C36.2265 209.055 36.7706 208.5 37.4453 208.5C38.1201 208.5 38.6751 209.055 38.6751 209.73C38.6751 210.404 38.1201 210.948 37.4453 210.948C37.3039 210.948 37.1624 210.927 37.0318 210.883C37.0318 210.916 37.0209 210.959 37.01 211.003C36.7815 212.146 36.2483 213.898 35.3886 215.018C34.3983 216.292 33.1032 217.304 31.1009 217.924L30.3609 217.108C32.4721 216.586 33.7018 215.661 34.605 214.496C35.3777 213.506 35.8892 211.993 36.0306 210.948H30.4697C30.0344 210.948 29.6644 210.97 29.3815 210.981V210.013C29.6862 210.056 30.1106 210.089 30.4697 210.089H35.9327C36.0306 210.089 36.1503 210.089 36.2809 210.078C36.2483 209.969 36.2265 209.849 36.2265 209.73ZM40.438 210.089C40.8624 210.1 41.1563 210.111 41.4066 210.111H47.2504C47.4898 210.111 47.8816 210.111 48.2081 210.089C48.1863 210.361 48.1863 210.666 48.1863 210.938V216.303C48.1863 216.651 48.1972 217.5 48.2081 217.619H47.2722C47.2722 217.543 47.2831 217.282 47.2831 216.988H41.3413C41.3521 217.271 41.3521 217.532 41.363 217.619H40.4271C40.438 217.478 40.4598 216.673 40.4598 216.292V210.938C40.4598 210.687 40.4598 210.35 40.438 210.089ZM41.3413 210.97V216.139H47.294V210.97H41.3413ZM57.5235 209.425C57.7955 209.817 58.2852 210.6 58.5355 211.112L57.9152 211.395C57.6432 210.829 57.284 210.176 56.9249 209.675L57.5235 209.425ZM58.9491 208.903C59.2429 209.283 59.7217 210.067 59.9938 210.568L59.3735 210.851C59.0796 210.274 58.7096 209.653 58.3396 209.164L58.9491 208.903ZM52.8767 209.262C53.5187 209.621 54.7702 210.459 55.2381 210.796L54.7267 211.547C54.2043 211.144 53.0181 210.361 52.3869 209.991L52.8767 209.262ZM51.2443 217.043C52.4305 216.836 53.7908 216.401 54.8899 215.78C56.6964 214.746 58.1329 213.321 59.0144 211.786L59.5367 212.69C58.5899 214.148 57.0882 215.552 55.347 216.575C54.2587 217.217 52.7569 217.717 51.7449 217.924L51.2443 217.043ZM51.2334 211.71C51.8755 212.058 53.1487 212.842 53.6167 213.179L53.1269 213.941C52.5828 213.549 51.4075 212.788 50.7437 212.45L51.2334 211.71ZM62.8341 211.917C63.0626 211.95 63.4109 211.961 63.585 211.961H68.5909C68.863 211.961 69.135 211.939 69.3636 211.917V212.788C69.1241 212.766 68.8412 212.755 68.5909 212.755H66.4688V216.76H69.1024C69.3636 216.76 69.6138 216.738 69.8315 216.705V217.619C69.6138 217.598 69.2765 217.587 69.1024 217.587H63.0844C62.845 217.587 62.562 217.598 62.3008 217.619V216.705C62.5511 216.738 62.8341 216.76 63.0844 216.76H65.5873V212.755H63.585C63.4109 212.755 63.0626 212.766 62.8341 212.788V211.917ZM77.3404 209.088C77.1554 209.37 76.9595 209.741 76.8616 209.947C76.7854 210.1 76.6983 210.252 76.6004 210.404H79.5495C79.8433 210.404 80.0828 210.372 80.2569 210.296L80.986 210.742C80.8989 210.894 80.7901 211.144 80.7357 211.318C80.4419 212.418 79.7672 213.887 78.7986 215.062C77.8083 216.27 76.5133 217.271 74.4674 218.022L73.6839 217.315C75.6754 216.727 77.0357 215.737 78.026 214.583C78.8748 213.582 79.5386 212.178 79.7672 211.188H76.0889C75.4251 212.102 74.511 213.071 73.3248 213.865L72.5739 213.299C74.4457 212.178 75.523 210.6 75.991 209.621C76.0998 209.436 76.263 209.044 76.3283 208.761L77.3404 209.088ZM86.0463 216.586V210.252C86.0463 209.947 86.0246 209.458 85.9593 209.12H87.0258C86.9931 209.458 86.9496 209.926 86.9496 210.252C86.9496 210.709 86.9496 211.34 86.9496 212.026C88.3861 212.461 90.4537 213.245 91.5964 213.821L91.2264 214.746C90.0402 214.104 88.1575 213.375 86.9496 212.994C86.9605 214.627 86.9605 216.27 86.9605 216.586C86.9605 216.923 86.9822 217.511 87.0258 217.87H85.9702C86.0246 217.521 86.0463 216.988 86.0463 216.586ZM99.1923 217.543L98.2564 215.138H95.1767L94.2517 217.543H93.2614L96.2976 209.741H97.1791L100.204 217.543H99.1923ZM97.092 211.917C97.0703 211.859 97.034 211.754 96.9832 211.601C96.9324 211.449 96.8816 211.293 96.8308 211.133C96.7873 210.967 96.751 210.84 96.722 210.753C96.6857 210.898 96.6458 211.046 96.6023 211.199C96.566 211.344 96.5261 211.478 96.4826 211.601C96.4463 211.725 96.4137 211.83 96.3847 211.917L95.5032 214.268H97.9626L97.092 211.917Z" fill="#25262B"/>
<path d="M37.1702 228.536H35.5223C35.1336 229.018 34.6828 229.469 34.1386 229.889C33.921 229.671 33.5479 229.423 33.268 229.314C34.434 228.505 35.2113 227.464 35.6155 226.531L36.6571 226.702C36.5017 227.028 36.3307 227.339 36.1286 227.666H41.4454L41.632 227.619L42.4093 227.852C41.974 228.645 41.3988 229.516 40.8391 230.06L39.9219 229.733C40.2484 229.423 40.5904 228.987 40.8702 228.536H38.3828C38.7248 229.733 39.5954 230.868 42.7824 231.335C42.5648 231.552 42.3005 231.988 42.1916 232.268C39.5488 231.801 38.4139 230.806 37.8387 229.687C37.2324 230.837 36.0819 231.568 33.8743 232.003C33.7811 231.754 33.5168 231.381 33.3302 231.179C35.8643 230.728 36.7971 229.951 37.1702 228.536ZM31.9311 236.403V237.491H39.7198V236.403H31.9311ZM31.9311 234.584V235.657H39.7198V234.584H31.9311ZM31.9311 232.796V233.838H39.7198V232.796H31.9311ZM30.8117 238.253V232.019H40.8702V238.253H30.8117ZM33.268 228.07L32.755 228.972C32.0399 228.552 30.6096 228.008 29.5058 227.666L30.0189 226.873C31.0916 227.168 32.5218 227.681 33.268 228.07ZM33.0815 229.765L33.2214 230.666C31.8222 231.117 30.3609 231.568 29.1949 231.941L28.7441 230.931C29.8634 230.666 31.4958 230.2 33.0815 229.765ZM33.408 238.408L34.4496 238.906C33.1903 239.636 31.247 240.352 29.7079 240.771C29.5058 240.554 29.1172 240.103 28.8529 239.901C30.4386 239.574 32.3042 239.03 33.408 238.408ZM37.0303 239.046L37.9786 238.455C39.6576 238.999 41.5076 239.668 42.6425 240.181L41.3677 240.756C40.4038 240.258 38.7248 239.605 37.0303 239.046ZM54.5665 229.531L53.9758 230.418C53.4783 229.827 52.4211 228.987 51.535 228.412L52.1258 227.635C52.9964 228.163 54.0691 228.956 54.5665 229.531ZM53.898 233.247L53.3228 234.18C52.7787 233.605 51.6749 232.812 50.7421 232.314L51.2863 231.506C52.2035 231.988 53.3539 232.687 53.898 233.247ZM49.4051 227.464L50.4001 227.712C50.027 228.878 49.5451 230.34 49.1253 231.21L48.3791 230.962C48.7367 230.044 49.172 228.505 49.4051 227.464ZM46.1715 230.931L45.2543 231.179C45.1765 230.246 44.819 228.816 44.4148 227.728L45.2543 227.526C45.7051 228.599 46.0627 229.998 46.1715 230.931ZM47.8661 232.812V233.029C48.3014 233.511 49.856 235.563 50.198 236.092L49.4362 236.994C49.1564 236.418 48.4257 235.221 47.8661 234.351V240.725H46.7934V234.335C46.2181 235.999 45.4253 237.724 44.648 238.766C44.5236 238.439 44.2438 237.926 44.0572 237.647C44.9589 236.558 45.9383 234.553 46.4824 232.812H44.3059V231.723H46.7934V226.593H47.8661V231.723H50.4001V232.812H47.8661ZM58.4687 235.999L56.4632 236.356V240.725H55.3749V236.558L50.5556 237.429L50.369 236.356L55.3749 235.47V226.546H56.4632V235.268L58.2977 234.941L58.4687 235.999ZM63.5212 226.593L64.625 226.951C64.2053 228.07 63.6456 229.205 63.0393 230.278V240.709H61.8889V232.065C61.4069 232.749 60.8784 233.371 60.3498 233.915C60.241 233.651 59.8989 233.014 59.6813 232.765C61.2204 231.273 62.6506 228.956 63.5212 226.593ZM73.9528 230.231H69.1646V232.454H73.5953V233.527H69.1646V235.874H73.8129V236.963H69.1646V240.725H67.9986V230.231H66.9259C66.2574 231.475 65.4956 232.594 64.7183 233.465C64.5317 233.262 64.0809 232.874 63.8166 232.687C65.2158 231.241 66.475 229.003 67.2368 226.733L68.3406 227.028C68.0919 227.744 67.7965 228.443 67.4855 229.127H73.9528V230.231ZM85.0218 227.308L85.7059 226.609C86.6697 227.091 87.8824 227.837 88.4887 228.381L87.7735 229.174C87.1828 228.63 86.0012 227.837 85.0218 227.308ZM87.2294 231.506L88.3954 231.801C87.7269 233.807 86.8097 235.579 85.6592 237.056C86.2344 238.579 86.9496 239.465 87.7424 239.465C88.1777 239.465 88.3643 238.657 88.4731 236.589C88.7374 236.854 89.1572 237.118 89.4681 237.211C89.2504 239.854 88.8307 240.616 87.6492 240.616C86.4521 240.616 85.5193 239.668 84.8042 238.066C83.8714 239.077 82.7987 239.947 81.6016 240.647C81.4306 240.414 81.0264 239.947 80.7621 239.73C82.1458 238.984 83.3428 238.02 84.3378 236.854C83.7781 235.097 83.405 232.812 83.2029 230.309H77.8394V232.33H81.8037V232.827C81.726 236.31 81.6327 237.615 81.3062 238.02C81.0731 238.315 80.8088 238.424 80.3735 238.471C79.9848 238.502 79.2852 238.502 78.5235 238.471C78.5079 238.113 78.3835 237.678 78.197 237.382C78.9121 237.444 79.5806 237.46 79.8449 237.46C80.0625 237.46 80.218 237.429 80.3113 237.289C80.5289 237.056 80.6067 236.076 80.6688 233.402H77.8394V233.527C77.8394 235.703 77.6062 238.828 76.207 240.849C76.0049 240.616 75.5075 240.212 75.2432 240.072C76.518 238.175 76.6579 235.517 76.6579 233.511V229.174H83.1407C83.0785 228.319 83.063 227.448 83.0474 226.562H84.2445C84.2445 227.464 84.2601 228.334 84.3067 229.174H89.3282V230.309H84.3844C84.5399 232.376 84.8197 234.226 85.2395 235.703C86.079 234.475 86.7475 233.076 87.2294 231.506Z" fill="#25262B"/>
<path d="M175.335 203.815V204.468H172.016V203.815H175.335ZM175.738 205.241V205.905H171.45V205.241H175.738ZM174.573 210.269H172.669V212.097H174.573V210.269ZM175.303 209.605V212.75H172.669V213.251H171.951V209.605H175.303ZM171.962 208.8V208.147H175.335V208.8H171.962ZM171.962 207.352V206.71H175.335V207.352H171.962ZM181.516 207.135V207.929H179.079V213.37H178.274V207.929H175.727V207.135H178.274V203.467H179.079V207.135H181.516ZM185.989 206.645V207.983H187.709V206.645H185.989ZM185.989 208.658V210.018H187.709V208.658H185.989ZM185.989 204.643V205.97H187.709V204.643H185.989ZM185.293 203.924H188.438V210.726H185.293V203.924ZM187.208 211.259L187.817 210.922C188.264 211.433 188.808 212.151 189.058 212.587L188.416 212.989C188.177 212.532 187.643 211.792 187.208 211.259ZM185.739 210.954L186.49 211.15C186.12 211.988 185.499 212.859 184.923 213.403C184.792 213.283 184.466 213.066 184.292 212.957C184.868 212.456 185.423 211.694 185.739 210.954ZM191.147 203.445H191.877V212.358C191.877 212.859 191.757 213.087 191.452 213.218C191.147 213.349 190.636 213.37 189.744 213.37C189.711 213.164 189.613 212.815 189.504 212.609C190.146 212.63 190.723 212.619 190.886 212.609C191.071 212.609 191.147 212.554 191.147 212.369V203.445ZM189.254 204.555H189.972V210.737H189.254V204.555ZM182.79 204.131L183.258 203.554C183.867 203.837 184.607 204.294 184.977 204.653L184.498 205.296C184.15 204.936 183.399 204.436 182.79 204.131ZM182.322 207.037L182.779 206.449C183.41 206.699 184.183 207.113 184.564 207.45L184.107 208.114C183.737 207.777 182.964 207.32 182.322 207.037ZM182.55 212.804C182.986 211.966 183.606 210.573 184.041 209.355L184.694 209.779C184.292 210.911 183.747 212.239 183.279 213.24L182.55 212.804ZM195.947 204.882H194.369V207.298H195.947V204.882ZM194.369 210.519H195.947V208.005H194.369V210.519ZM196.708 204.153V211.248H194.369V212.13H193.629V204.153H196.708ZM197.601 210.247L198.254 209.877C198.809 210.421 199.418 211.194 199.668 211.727L198.983 212.162C198.733 211.629 198.156 210.824 197.601 210.247ZM203.216 207.548H201.834V208.778H203.096V209.496H201.834V212.413C201.834 212.87 201.714 213.109 201.388 213.229C201.05 213.349 200.506 213.359 199.625 213.359C199.592 213.142 199.483 212.815 199.364 212.609C200.038 212.63 200.637 212.63 200.811 212.619C200.996 212.609 201.05 212.565 201.05 212.402V209.496H196.937V208.778H201.05V207.548H196.882V206.83H199.614V205.448H197.35V204.73H199.614V203.435H200.408V204.73H202.748V205.448H200.408V206.83H203.216V207.548ZM207.808 204.534H205.458V205.437H207.808V204.534ZM205.458 206.993H207.808V206.036H205.458V206.993ZM208.581 207.613H205.458V213.381H204.653V203.903H208.581V207.613ZM210.333 209.061H207.776V210.062H210.333V209.061ZM207.776 211.727H210.333V210.671H207.776V211.727ZM211.084 212.369H207.776V212.913H207.047V208.43H211.084V212.369ZM210.322 207.004H212.76V206.036H210.322V207.004ZM212.76 204.534H210.322V205.437H212.76V204.534ZM213.576 203.903V212.304C213.576 212.815 213.456 213.087 213.097 213.229C212.749 213.359 212.172 213.37 211.269 213.37C211.236 213.142 211.106 212.761 210.986 212.543C211.65 212.576 212.314 212.565 212.51 212.554C212.695 212.554 212.76 212.489 212.76 212.293V207.624H209.55V203.903H213.576Z" fill="#25262B"/>
<path d="M185.133 234.108C185.133 235.623 185.009 236.98 184.763 238.178C184.534 239.376 184.155 240.398 183.626 241.244C183.115 242.072 182.437 242.706 181.591 243.147C180.763 243.587 179.741 243.808 178.525 243.808C177.01 243.808 175.768 243.42 174.799 242.645C173.83 241.869 173.107 240.759 172.632 239.315C172.174 237.87 171.945 236.134 171.945 234.108C171.945 232.064 172.156 230.32 172.579 228.875C173.002 227.43 173.698 226.32 174.667 225.545C175.636 224.77 176.922 224.382 178.525 224.382C180.041 224.382 181.283 224.77 182.252 225.545C183.221 226.303 183.943 227.413 184.419 228.875C184.895 230.32 185.133 232.064 185.133 234.108ZM175.909 234.108C175.909 235.535 175.988 236.733 176.147 237.702C176.305 238.654 176.57 239.376 176.94 239.87C177.327 240.345 177.856 240.583 178.525 240.583C179.195 240.583 179.715 240.345 180.085 239.87C180.472 239.394 180.745 238.68 180.904 237.729C181.08 236.76 181.168 235.553 181.168 234.108C181.168 232.663 181.08 231.465 180.904 230.514C180.745 229.545 180.472 228.822 180.085 228.347C179.715 227.853 179.195 227.607 178.525 227.607C177.856 227.607 177.327 227.853 176.94 228.347C176.57 228.822 176.305 229.545 176.147 230.514C175.988 231.465 175.909 232.663 175.909 234.108ZM200.257 234.108C200.257 235.623 200.134 236.98 199.887 238.178C199.658 239.376 199.279 240.398 198.75 241.244C198.239 242.072 197.561 242.706 196.715 243.147C195.887 243.587 194.865 243.808 193.65 243.808C192.134 243.808 190.892 243.42 189.923 242.645C188.954 241.869 188.232 240.759 187.756 239.315C187.298 237.87 187.069 236.134 187.069 234.108C187.069 232.064 187.28 230.32 187.703 228.875C188.126 227.43 188.822 226.32 189.791 225.545C190.76 224.77 192.046 224.382 193.65 224.382C195.165 224.382 196.407 224.77 197.376 225.545C198.345 226.303 199.068 227.413 199.543 228.875C200.019 230.32 200.257 232.064 200.257 234.108ZM191.033 234.108C191.033 235.535 191.112 236.733 191.271 237.702C191.43 238.654 191.694 239.376 192.064 239.87C192.452 240.345 192.98 240.583 193.65 240.583C194.319 240.583 194.839 240.345 195.209 239.87C195.597 239.394 195.87 238.68 196.028 237.729C196.204 236.76 196.293 235.553 196.293 234.108C196.293 232.663 196.204 231.465 196.028 230.514C195.87 229.545 195.597 228.822 195.209 228.347C194.839 227.853 194.319 227.607 193.65 227.607C192.98 227.607 192.452 227.853 192.064 228.347C191.694 228.822 191.43 229.545 191.271 230.514C191.112 231.465 191.033 232.663 191.033 234.108ZM202.748 241.693C202.748 240.883 202.968 240.319 203.409 240.002C203.849 239.667 204.387 239.5 205.021 239.5C205.638 239.5 206.166 239.667 206.607 240.002C207.047 240.319 207.268 240.883 207.268 241.693C207.268 242.468 207.047 243.032 206.607 243.385C206.166 243.719 205.638 243.887 205.021 243.887C204.387 243.887 203.849 243.719 203.409 243.385C202.968 243.032 202.748 242.468 202.748 241.693ZM202.748 231.042C202.748 230.232 202.968 229.668 203.409 229.351C203.849 229.016 204.387 228.849 205.021 228.849C205.638 228.849 206.166 229.016 206.607 229.351C207.047 229.668 207.268 230.232 207.268 231.042C207.268 231.818 207.047 232.381 206.607 232.734C206.166 233.069 205.638 233.236 205.021 233.236C204.387 233.236 203.849 233.069 203.409 232.734C202.968 232.381 202.748 231.818 202.748 231.042ZM222.917 234.108C222.917 235.623 222.794 236.98 222.547 238.178C222.318 239.376 221.94 240.398 221.411 241.244C220.9 242.072 220.222 242.706 219.376 243.147C218.548 243.587 217.526 243.808 216.31 243.808C214.795 243.808 213.553 243.42 212.584 242.645C211.615 241.869 210.892 240.759 210.417 239.315C209.959 237.87 209.73 236.134 209.73 234.108C209.73 232.064 209.941 230.32 210.364 228.875C210.787 227.43 211.483 226.32 212.452 225.545C213.421 224.77 214.707 224.382 216.31 224.382C217.826 224.382 219.068 224.77 220.037 225.545C221.006 226.303 221.728 227.413 222.204 228.875C222.68 230.32 222.917 232.064 222.917 234.108ZM213.694 234.108C213.694 235.535 213.773 236.733 213.932 237.702C214.09 238.654 214.355 239.376 214.725 239.87C215.112 240.345 215.641 240.583 216.31 240.583C216.98 240.583 217.5 240.345 217.87 239.87C218.257 239.394 218.53 238.68 218.689 237.729C218.865 236.76 218.953 235.553 218.953 234.108C218.953 232.663 218.865 231.465 218.689 230.514C218.53 229.545 218.257 228.822 217.87 228.347C217.5 227.853 216.98 227.607 216.31 227.607C215.641 227.607 215.112 227.853 214.725 228.347C214.355 228.822 214.09 229.545 213.932 230.514C213.773 231.465 213.694 232.663 213.694 234.108ZM238.042 234.108C238.042 235.623 237.918 236.98 237.672 238.178C237.443 239.376 237.064 240.398 236.535 241.244C236.024 242.072 235.346 242.706 234.5 243.147C233.672 243.587 232.65 243.808 231.435 243.808C229.919 243.808 228.677 243.42 227.708 242.645C226.739 241.869 226.017 240.759 225.541 239.315C225.083 237.87 224.854 236.134 224.854 234.108C224.854 232.064 225.065 230.32 225.488 228.875C225.911 227.43 226.607 226.32 227.576 225.545C228.545 224.77 229.831 224.382 231.435 224.382C232.95 224.382 234.192 224.77 235.161 225.545C236.13 226.303 236.852 227.413 237.328 228.875C237.804 230.32 238.042 232.064 238.042 234.108ZM228.818 234.108C228.818 235.535 228.897 236.733 229.056 237.702C229.215 238.654 229.479 239.376 229.849 239.87C230.236 240.345 230.765 240.583 231.435 240.583C232.104 240.583 232.624 240.345 232.994 239.87C233.381 239.394 233.655 238.68 233.813 237.729C233.989 236.76 234.077 235.553 234.077 234.108C234.077 232.663 233.989 231.465 233.813 230.514C233.655 229.545 233.381 228.822 232.994 228.347C232.624 227.853 232.104 227.607 231.435 227.607C230.765 227.607 230.236 227.853 229.849 228.347C229.479 228.822 229.215 229.545 229.056 230.514C228.897 231.465 228.818 232.663 228.818 234.108ZM240.533 241.693C240.533 240.883 240.753 240.319 241.194 240.002C241.634 239.667 242.172 239.5 242.806 239.5C243.423 239.5 243.951 239.667 244.392 240.002C244.832 240.319 245.052 240.883 245.052 241.693C245.052 242.468 244.832 243.032 244.392 243.385C243.951 243.719 243.423 243.887 242.806 243.887C242.172 243.887 241.634 243.719 241.194 243.385C240.753 243.032 240.533 242.468 240.533 241.693ZM240.533 231.042C240.533 230.232 240.753 229.668 241.194 229.351C241.634 229.016 242.172 228.849 242.806 228.849C243.423 228.849 243.951 229.016 244.392 229.351C244.832 229.668 245.052 230.232 245.052 231.042C245.052 231.818 244.832 232.381 244.392 232.734C243.951 233.069 243.423 233.236 242.806 233.236C242.172 233.236 241.634 233.069 241.194 232.734C240.753 232.381 240.533 231.818 240.533 231.042ZM257.478 243.543H253.487V232.628C253.487 232.329 253.487 231.959 253.487 231.518C253.505 231.078 253.523 230.62 253.54 230.144C253.558 229.668 253.575 229.245 253.593 228.875C253.505 228.981 253.311 229.175 253.012 229.457C252.73 229.721 252.465 229.959 252.219 230.17L250.052 231.915L248.122 229.51L254.201 224.673H257.478V243.543ZM275.827 234.108C275.827 235.623 275.703 236.98 275.457 238.178C275.228 239.376 274.849 240.398 274.32 241.244C273.809 242.072 273.131 242.706 272.285 243.147C271.457 243.587 270.435 243.808 269.219 243.808C267.704 243.808 266.462 243.42 265.493 242.645C264.524 241.869 263.802 240.759 263.326 239.315C262.868 237.87 262.639 236.134 262.639 234.108C262.639 232.064 262.85 230.32 263.273 228.875C263.696 227.43 264.392 226.32 265.361 225.545C266.33 224.77 267.616 224.382 269.219 224.382C270.735 224.382 271.977 224.77 272.946 225.545C273.915 226.303 274.637 227.413 275.113 228.875C275.589 230.32 275.827 232.064 275.827 234.108ZM266.603 234.108C266.603 235.535 266.682 236.733 266.841 237.702C266.999 238.654 267.264 239.376 267.634 239.87C268.021 240.345 268.55 240.583 269.219 240.583C269.889 240.583 270.409 240.345 270.779 239.87C271.166 239.394 271.44 238.68 271.598 237.729C271.774 236.76 271.862 235.553 271.862 234.108C271.862 232.663 271.774 231.465 271.598 230.514C271.44 229.545 271.166 228.822 270.779 228.347C270.409 227.853 269.889 227.607 269.219 227.607C268.55 227.607 268.021 227.853 267.634 228.347C267.264 228.822 266.999 229.545 266.841 230.514C266.682 231.465 266.603 232.663 266.603 234.108Z" fill="#25262B"/>
<path d="M537.304 203.861H534.389C533.874 203.861 533.38 204.066 533.015 204.43C532.651 204.794 532.446 205.289 532.446 205.804V214.549C532.446 215.064 532.651 215.559 533.015 215.923C533.38 216.288 533.874 216.492 534.389 216.492H543.134C543.65 216.492 544.144 216.288 544.508 215.923C544.873 215.559 545.077 215.064 545.077 214.549V211.634" stroke="#25262B" stroke-width="2.33195" stroke-linecap="round" stroke-linejoin="round"/>
<path d="M537.304 211.634H540.219L548.478 203.375C548.865 202.989 549.082 202.465 549.082 201.918C549.082 201.371 548.865 200.847 548.478 200.46C548.092 200.074 547.567 199.857 547.021 199.857C546.474 199.857 545.95 200.074 545.563 200.46L537.304 208.719V211.634Z" stroke="#25262B" stroke-width="2.33195" stroke-linecap="round" stroke-linejoin="round"/>
<path d="M544.106 201.917L547.021 204.832" stroke="#25262B" stroke-width="2.33195" stroke-linecap="round" stroke-linejoin="round"/>
<path d="M561.984 203.861H577.53" stroke="#25262B" stroke-width="2.13762" stroke-linecap="round" stroke-linejoin="round"/>
<path d="M567.814 207.747V213.577" stroke="#25262B" stroke-width="2.13762" stroke-linecap="round" stroke-linejoin="round"/>
<path d="M571.701 207.747V213.577" stroke="#25262B" stroke-width="2.13762" stroke-linecap="round" stroke-linejoin="round"/>
<path d="M562.956 203.861L563.927 215.521C563.927 216.036 564.132 216.53 564.497 216.895C564.861 217.259 565.355 217.464 565.871 217.464H573.644C574.159 217.464 574.653 217.259 575.018 216.895C575.382 216.53 575.587 216.036 575.587 215.521L576.559 203.861" stroke="#25262B" stroke-width="2.13762" stroke-linecap="round" stroke-linejoin="round"/>
<path d="M566.842 203.861V200.946C566.842 200.689 566.945 200.441 567.127 200.259C567.309 200.077 567.556 199.975 567.814 199.975H571.701C571.958 199.975 572.205 200.077 572.388 200.259C572.57 200.441 572.672 200.689 572.672 200.946V203.861" stroke="#25262B" stroke-width="2.13762" stroke-linecap="round" stroke-linejoin="round"/>
<rect x="443.92" y="226.598" width="62.5298" height="26.4288" rx="6.21854" fill="#FA5252"/>
<path d="M459.337 234.63V244.994L467.758 239.812L459.337 234.63Z" stroke="#F8F9FA" stroke-width="2.13762" stroke-linecap="round" stroke-linejoin="round"/>
<path d="M479.87 236.286H478.405V236.761H479.87V236.286ZM478.405 237.993H479.87V237.489H478.405V237.993ZM480.914 238.795H478.405V243.851H477.323V235.493H480.914V238.795ZM480.765 240.847H481.633V240.147H480.765V240.847ZM483.629 241.752H482.603V243.673H481.633V241.752H480.737C480.644 242.395 480.336 243.3 479.543 243.841C479.385 243.645 479.049 243.356 478.834 243.207C479.431 242.834 479.692 242.228 479.786 241.752H478.843V240.847H479.823V240.147H478.974V239.271H483.479V240.147H482.603V240.847H483.629V241.752ZM482.584 238.011H484.095V237.489H482.584V238.011ZM484.095 236.286H482.584V236.761H484.095V236.286ZM485.186 235.493V242.554C485.186 243.123 485.084 243.431 484.748 243.608C484.412 243.795 483.927 243.823 483.218 243.823C483.181 243.515 483.032 243.011 482.882 242.722C483.302 242.741 483.759 242.741 483.899 242.731C484.048 242.731 484.095 242.675 484.095 242.545V238.814H481.53V235.493H485.186ZM489.86 238.207L490.625 238.17C490.96 237.256 491.296 236.053 491.473 235.138L492.705 235.353C492.406 236.276 492.052 237.293 491.707 238.105C492.248 238.077 492.817 238.039 493.395 238.011C493.199 237.666 492.994 237.33 492.789 237.032L493.665 236.584C494.244 237.368 494.859 238.403 495.083 239.112L494.122 239.625C494.066 239.429 493.992 239.215 493.889 238.981C492.499 239.093 491.035 239.196 489.972 239.271L489.86 238.207ZM488.815 238.011H487.994C487.835 238.711 487.668 239.401 487.509 240.036C487.752 240.185 488.003 240.353 488.255 240.53C488.526 239.812 488.703 238.963 488.815 238.011ZM489.253 236.967L489.916 237.069C489.813 238.767 489.561 240.119 489.141 241.201C489.552 241.537 489.906 241.873 490.139 242.172L489.477 243.058C489.281 242.797 488.992 242.489 488.656 242.181C488.218 242.899 487.658 243.459 486.968 243.888C486.809 243.608 486.511 243.207 486.296 243.002C486.912 242.675 487.425 242.162 487.817 241.481C487.63 241.332 487.434 241.183 487.248 241.052L487.155 241.379L486.259 240.894C486.483 240.129 486.735 239.093 486.968 238.011H486.287V236.995H487.183C487.313 236.351 487.434 235.717 487.528 235.138L488.572 235.241C488.47 235.791 488.349 236.388 488.218 236.995H489.067L489.253 236.967ZM493.46 240.959H491.501V242.489H493.46V240.959ZM490.457 243.851V239.961H494.561V243.813H493.46V243.487H491.501V243.851H490.457Z" fill="#F8F9FA"/>
<rect x="518.887" y="226.598" width="62.5298" height="26.4288" rx="6.21854" fill="#CED4DA"/>
<path d="M540.781 235.278H534.304C533.588 235.278 533.008 235.858 533.008 236.573V243.051C533.008 243.767 533.588 244.347 534.304 244.347H540.781C541.497 244.347 542.077 243.767 542.077 243.051V236.573C542.077 235.858 541.497 235.278 540.781 235.278Z" stroke="#25262B" stroke-width="2.13762" stroke-linecap="round" stroke-linejoin="round"/>
<path d="M552.197 240.595L553.111 240.754C553.018 241.63 552.822 242.563 552.551 243.16C552.355 243.039 551.945 242.843 551.702 242.759C551.973 242.209 552.122 241.378 552.197 240.595ZM554.221 240.763L555.004 240.52C555.238 241.052 555.48 241.733 555.583 242.199L554.762 242.498C554.678 242.031 554.435 241.313 554.221 240.763ZM555.741 242.451L556.385 241.668C557.588 241.994 559.034 242.6 559.892 243.067L559.249 243.934C558.437 243.421 556.954 242.796 555.741 242.451ZM556.749 240.791L557.374 240.091C558.045 240.352 558.847 240.772 559.304 241.108L558.661 241.882C558.222 241.528 557.411 241.052 556.749 240.791ZM558.698 236.976H557.075C557.299 237.34 557.57 237.694 557.887 238.03C558.204 237.703 558.474 237.349 558.698 236.976ZM559.454 235.987L560.144 236.369C559.79 237.265 559.267 238.039 558.642 238.701C559.258 239.177 559.967 239.56 560.713 239.802C560.48 240.026 560.163 240.436 560.013 240.707C559.239 240.399 558.53 239.951 557.896 239.392C557.243 239.933 556.525 240.352 555.797 240.66C555.732 240.52 555.611 240.334 555.471 240.157L554.79 240.464C554.762 240.334 554.725 240.175 554.678 240.007L554.202 240.045V243.86H553.241V240.11L551.889 240.194L551.796 239.233L552.467 239.205C552.607 239.028 552.756 238.823 552.906 238.608C552.635 238.207 552.187 237.713 551.805 237.34L552.337 236.584C552.402 236.64 552.477 236.705 552.551 236.771C552.812 236.258 553.074 235.642 553.232 235.147L554.193 235.502C553.857 236.136 553.484 236.854 553.148 237.377C553.269 237.507 553.372 237.638 553.465 237.75C553.782 237.228 554.081 236.696 554.295 236.239L555.2 236.659C554.687 237.47 554.044 238.412 553.456 239.168L554.351 239.13C554.249 238.897 554.137 238.664 554.025 238.459L554.762 238.151C555.023 238.617 555.284 239.177 555.443 239.653C556.058 239.401 556.646 239.065 557.168 238.664C556.907 238.375 556.674 238.058 556.46 237.731C556.208 238.011 555.937 238.282 555.629 238.533C555.461 238.3 555.107 237.955 554.864 237.815C555.881 237.041 556.543 236.015 556.889 235.138L557.971 235.315C557.868 235.549 557.756 235.791 557.625 236.024H559.286L559.454 235.987ZM568.455 235.716L569.323 236.36C568.502 237.368 567.298 238.533 566.17 239.242V242.554C566.17 243.197 566.011 243.496 565.554 243.664C565.088 243.832 564.425 243.85 563.53 243.85C563.465 243.515 563.259 243.02 563.092 242.712C563.745 242.75 564.509 242.75 564.724 242.74C564.929 242.74 564.994 242.694 564.994 242.535V238.31H565.619C566.188 237.909 566.767 237.386 567.233 236.882H561.823V235.791H568.185L568.455 235.716Z" fill="#25262B"/>
<path d="M-24.1134 259.245V190.841H-31.8866V259.245H-24.1134Z" fill="#30BCF9" mask="url(#path-4-inside-1_928_95900)"/>
<rect x="-27.6113" y="191.23" width="621.077" height="67.6266" stroke="#E9ECEF" stroke-width="0.777317"/>
<path d="M36.7271 128.888C36.7271 129.28 37.0536 129.607 37.4453 129.607C37.848 129.607 38.1745 129.28 38.1745 128.888C38.1745 128.486 37.848 128.159 37.4453 128.159C37.0536 128.159 36.7271 128.486 36.7271 128.888ZM36.2265 128.888C36.2265 128.214 36.7706 127.659 37.4453 127.659C38.1201 127.659 38.6751 128.214 38.6751 128.888C38.6751 129.563 38.1201 130.107 37.4453 130.107C37.3039 130.107 37.1624 130.085 37.0318 130.042C37.0318 130.074 37.0209 130.118 37.01 130.162C36.7815 131.304 36.2483 133.056 35.3886 134.177C34.3983 135.45 33.1032 136.462 31.1009 137.083L30.3609 136.267C32.4721 135.744 33.7018 134.819 34.605 133.655C35.3777 132.665 35.8892 131.152 36.0306 130.107H30.4697C30.0344 130.107 29.6644 130.129 29.3815 130.14V129.171C29.6862 129.215 30.1106 129.247 30.4697 129.247H35.9327C36.0306 129.247 36.1503 129.247 36.2809 129.237C36.2483 129.128 36.2265 129.008 36.2265 128.888ZM40.438 129.247C40.8624 129.258 41.1563 129.269 41.4066 129.269H47.2504C47.4898 129.269 47.8816 129.269 48.2081 129.247C48.1863 129.519 48.1863 129.824 48.1863 130.096V135.461C48.1863 135.81 48.1972 136.658 48.2081 136.778H47.2722C47.2722 136.702 47.2831 136.441 47.2831 136.147H41.3413C41.3521 136.43 41.3521 136.691 41.363 136.778H40.4271C40.438 136.637 40.4598 135.831 40.4598 135.45V130.096C40.4598 129.846 40.4598 129.509 40.438 129.247ZM41.3413 130.129V135.298H47.294V130.129H41.3413ZM57.5235 128.584C57.7955 128.975 58.2852 129.759 58.5355 130.27L57.9152 130.553C57.6432 129.987 57.284 129.334 56.9249 128.834L57.5235 128.584ZM58.9491 128.061C59.2429 128.442 59.7217 129.226 59.9938 129.726L59.3735 130.009C59.0796 129.432 58.7096 128.812 58.3396 128.322L58.9491 128.061ZM52.8767 128.42C53.5187 128.779 54.7702 129.617 55.2381 129.955L54.7267 130.706C54.2043 130.303 53.0181 129.519 52.3869 129.149L52.8767 128.42ZM51.2443 136.201C52.4305 135.995 53.7908 135.559 54.8899 134.939C56.6964 133.905 58.1329 132.48 59.0144 130.945L59.5367 131.848C58.5899 133.307 57.0882 134.71 55.347 135.733C54.2587 136.375 52.7569 136.876 51.7449 137.083L51.2443 136.201ZM51.2334 130.869C51.8755 131.217 53.1487 132.001 53.6167 132.338L53.1269 133.1C52.5828 132.708 51.4075 131.946 50.7437 131.609L51.2334 130.869ZM62.8341 131.076C63.0626 131.108 63.4109 131.119 63.585 131.119H68.5909C68.863 131.119 69.135 131.097 69.3636 131.076V131.946C69.1241 131.925 68.8412 131.914 68.5909 131.914H66.4688V135.918H69.1024C69.3636 135.918 69.6138 135.897 69.8315 135.864V136.778C69.6138 136.756 69.2765 136.745 69.1024 136.745H63.0844C62.845 136.745 62.562 136.756 62.3008 136.778V135.864C62.5511 135.897 62.8341 135.918 63.0844 135.918H65.5873V131.914H63.585C63.4109 131.914 63.0626 131.925 62.8341 131.946V131.076ZM77.3404 128.246C77.1554 128.529 76.9595 128.899 76.8616 129.106C76.7854 129.258 76.6983 129.411 76.6004 129.563H79.5495C79.8433 129.563 80.0828 129.53 80.2569 129.454L80.986 129.9C80.8989 130.053 80.7901 130.303 80.7357 130.477C80.4419 131.576 79.7672 133.045 78.7986 134.221C77.8083 135.429 76.5133 136.43 74.4674 137.181L73.6839 136.473C75.6754 135.886 77.0357 134.895 78.026 133.742C78.8748 132.741 79.5386 131.337 79.7672 130.347H76.0889C75.4251 131.261 74.511 132.229 73.3248 133.024L72.5739 132.458C74.4457 131.337 75.523 129.759 75.991 128.779C76.0998 128.594 76.263 128.203 76.3283 127.92L77.3404 128.246ZM86.0463 135.744V129.411C86.0463 129.106 86.0246 128.616 85.9593 128.279H87.0258C86.9931 128.616 86.9496 129.084 86.9496 129.411C86.9496 129.868 86.9496 130.499 86.9496 131.185C88.3861 131.62 90.4537 132.403 91.5964 132.98L91.2264 133.905C90.0402 133.263 88.1575 132.534 86.9496 132.153C86.9605 133.785 86.9605 135.429 86.9605 135.744C86.9605 136.082 86.9822 136.669 87.0258 137.028H85.9702C86.0246 136.68 86.0463 136.147 86.0463 135.744ZM99.1923 136.702L98.2564 134.297H95.1767L94.2517 136.702H93.2614L96.2976 128.899H97.1791L100.204 136.702H99.1923ZM97.092 131.076C97.0703 131.018 97.034 130.912 96.9832 130.76C96.9324 130.608 96.8816 130.452 96.8308 130.292C96.7873 130.125 96.751 129.998 96.722 129.911C96.6857 130.056 96.6458 130.205 96.6023 130.357C96.566 130.503 96.5261 130.637 96.4826 130.76C96.4463 130.883 96.4137 130.989 96.3847 131.076L95.5032 133.426H97.9626L97.092 131.076Z" fill="#25262B"/>
<path d="M32.4285 146.933C34.4496 147.182 38.6315 148.053 40.5904 148.737L40.0929 149.934C38.1962 149.25 34.1231 148.364 31.9777 148.084L32.4285 146.933ZM31.729 151.038C33.8588 151.395 37.621 152.188 39.5643 152.903L39.0668 154.1C37.2635 153.385 33.4701 152.53 31.2626 152.204L31.729 151.038ZM30.8739 155.562C33.4857 155.966 37.9941 157.038 40.124 157.893L39.5954 159.091C37.5277 158.189 32.9105 157.147 30.392 156.743L30.8739 155.562ZM45.0988 151.97C45.5652 152.001 46.3892 152.048 47.2598 152.048H55.7792C56.5565 152.048 57.1161 152.001 57.4582 151.97V153.494C57.1472 153.478 56.4943 153.416 55.7947 153.416H47.2598C46.4047 153.416 45.5807 153.447 45.0988 153.494V151.97ZM62.4019 147.198C62.8372 147.244 63.3036 147.291 63.8011 147.291H70.0973C70.5326 147.291 71.0923 147.26 71.5431 147.198V148.488C71.0923 148.457 70.5482 148.441 70.0973 148.441H63.8166C63.3036 148.441 62.7906 148.457 62.4019 148.488V147.198ZM60.5363 151.1C60.9716 151.146 61.4069 151.177 61.8889 151.177H72.0717C72.3982 151.177 72.9112 151.162 73.2843 151.1V152.39C72.9423 152.375 72.4448 152.359 72.0717 152.359H67.8431C67.7965 154.038 67.5477 155.453 66.9259 156.603C66.3662 157.645 65.1847 158.764 63.8633 159.448L62.7128 158.593C63.9254 158.096 65.0448 157.194 65.6511 156.214C66.3351 155.126 66.5061 153.82 66.5528 152.359H61.8889C61.4225 152.359 60.9716 152.359 60.5363 152.39V151.1ZM75.5763 154.691C77.6284 154.209 79.9138 153.121 81.173 152.343C82.6499 151.442 84.0802 150.167 84.873 149.172L85.8369 150.105C85.0596 150.96 83.7382 152.095 82.3234 153.012V158.546C82.3234 159.028 82.339 159.666 82.4012 159.915H80.9709C81.002 159.666 81.0331 159.028 81.0331 158.546V153.789C79.7272 154.489 77.9238 155.297 76.1671 155.841L75.5763 154.691ZM92.755 147.306C93.8588 148.037 95.8488 149.654 96.7194 150.525L95.7399 151.504C94.9626 150.696 93.0193 149.032 91.8689 148.255L92.755 147.306ZM91.4181 157.722C94.1387 157.318 96.1597 156.37 97.6366 155.453C100.031 153.945 101.927 151.644 102.829 149.732L103.575 151.053C102.518 152.996 100.699 155.111 98.3517 156.588C96.7971 157.567 94.8383 158.515 92.242 158.997L91.4181 157.722ZM116.665 146.265C117.054 146.824 117.614 147.757 117.94 148.395L117.101 148.768C116.79 148.146 116.261 147.198 115.841 146.622L116.665 146.265ZM118.375 145.643C118.78 146.218 119.386 147.182 119.681 147.757L118.842 148.13C118.5 147.462 117.987 146.576 117.551 146.001L118.375 145.643ZM112.483 147.011C112.235 147.415 111.955 147.944 111.799 148.224C111.69 148.441 111.566 148.659 111.442 148.877H115.655C116.075 148.877 116.417 148.83 116.665 148.737L117.691 149.359C117.567 149.576 117.412 149.934 117.334 150.183C116.914 151.753 115.966 153.851 114.582 155.546C113.167 157.272 111.302 158.686 108.395 159.775L107.26 158.749C110.12 157.909 112.064 156.51 113.478 154.846C114.675 153.432 115.639 151.411 115.95 149.996H110.711C109.763 151.317 108.472 152.701 106.762 153.82L105.69 153.027C108.364 151.426 109.887 149.156 110.571 147.773C110.727 147.493 110.96 146.933 111.053 146.529L112.483 147.011Z" fill="#25262B"/>
<path d="M175.335 122.974V123.627H172.016V122.974H175.335ZM175.738 124.4V125.064H171.45V124.4H175.738ZM174.573 129.427H172.669V131.256H174.573V129.427ZM175.303 128.764V131.909H172.669V132.409H171.951V128.764H175.303ZM171.962 127.958V127.305H175.335V127.958H171.962ZM171.962 126.511V125.869H175.335V126.511H171.962ZM181.516 126.293V127.088H179.079V132.529H178.274V127.088H175.727V126.293H178.274V122.626H179.079V126.293H181.516ZM185.989 125.804V127.142H187.709V125.804H185.989ZM185.989 127.817V129.177H187.709V127.817H185.989ZM185.989 123.801V125.129H187.709V123.801H185.989ZM185.293 123.083H188.438V129.885H185.293V123.083ZM187.208 130.418L187.817 130.08C188.264 130.592 188.808 131.31 189.058 131.745L188.416 132.148C188.177 131.691 187.643 130.951 187.208 130.418ZM185.739 130.113L186.49 130.309C186.12 131.147 185.499 132.017 184.923 132.562C184.792 132.442 184.466 132.224 184.292 132.115C184.868 131.615 185.423 130.853 185.739 130.113ZM191.147 122.604H191.877V131.517C191.877 132.017 191.757 132.246 191.452 132.377C191.147 132.507 190.636 132.529 189.744 132.529C189.711 132.322 189.613 131.974 189.504 131.767C190.146 131.789 190.723 131.778 190.886 131.767C191.071 131.767 191.147 131.713 191.147 131.528V122.604ZM189.254 123.714H189.972V129.895H189.254V123.714ZM182.79 123.29L183.258 122.713C183.867 122.996 184.607 123.453 184.977 123.812L184.498 124.454C184.15 124.095 183.399 123.594 182.79 123.29ZM182.322 126.195L182.779 125.608C183.41 125.858 184.183 126.272 184.564 126.609L184.107 127.273C183.737 126.935 182.964 126.478 182.322 126.195ZM182.55 131.963C182.986 131.125 183.606 129.732 184.041 128.513L184.694 128.938C184.292 130.07 183.747 131.397 183.279 132.398L182.55 131.963ZM195.947 124.041H194.369V126.457H195.947V124.041ZM194.369 129.678H195.947V127.164H194.369V129.678ZM196.708 123.312V130.407H194.369V131.288H193.629V123.312H196.708ZM197.601 129.406L198.254 129.036C198.809 129.58 199.418 130.352 199.668 130.886L198.983 131.321C198.733 130.788 198.156 129.982 197.601 129.406ZM203.216 126.707H201.834V127.937H203.096V128.655H201.834V131.571C201.834 132.028 201.714 132.268 201.388 132.387C201.05 132.507 200.506 132.518 199.625 132.518C199.592 132.3 199.483 131.974 199.364 131.767C200.038 131.789 200.637 131.789 200.811 131.778C200.996 131.767 201.05 131.724 201.05 131.56V128.655H196.937V127.937H201.05V126.707H196.882V125.989H199.614V124.607H197.35V123.888H199.614V122.593H200.408V123.888H202.748V124.607H200.408V125.989H203.216V126.707ZM207.808 123.692H205.458V124.596H207.808V123.692ZM205.458 126.152H207.808V125.194H205.458V126.152ZM208.581 126.772H205.458V132.54H204.653V123.061H208.581V126.772ZM210.333 128.22H207.776V129.221H210.333V128.22ZM207.776 130.886H210.333V129.83H207.776V130.886ZM211.084 131.528H207.776V132.072H207.047V127.588H211.084V131.528ZM210.322 126.163H212.76V125.194H210.322V126.163ZM212.76 123.692H210.322V124.596H212.76V123.692ZM213.576 123.061V131.462C213.576 131.974 213.456 132.246 213.097 132.387C212.749 132.518 212.172 132.529 211.269 132.529C211.236 132.3 211.106 131.92 210.986 131.702C211.65 131.735 212.314 131.724 212.51 131.713C212.695 131.713 212.76 131.647 212.76 131.452V126.783H209.55V123.061H213.576Z" fill="#25262B"/>
<path d="M185.133 153.267C185.133 154.782 185.009 156.139 184.763 157.337C184.534 158.535 184.155 159.557 183.626 160.403C183.115 161.231 182.437 161.865 181.591 162.305C180.763 162.746 179.741 162.966 178.525 162.966C177.01 162.966 175.768 162.579 174.799 161.803C173.83 161.028 173.107 159.918 172.632 158.473C172.174 157.029 171.945 155.293 171.945 153.267C171.945 151.223 172.156 149.479 172.579 148.034C173.002 146.589 173.698 145.479 174.667 144.704C175.636 143.929 176.922 143.541 178.525 143.541C180.041 143.541 181.283 143.929 182.252 144.704C183.221 145.462 183.943 146.572 184.419 148.034C184.895 149.479 185.133 151.223 185.133 153.267ZM175.909 153.267C175.909 154.694 175.988 155.892 176.147 156.861C176.305 157.813 176.57 158.535 176.94 159.028C177.327 159.504 177.856 159.742 178.525 159.742C179.195 159.742 179.715 159.504 180.085 159.028C180.472 158.553 180.745 157.839 180.904 156.888C181.08 155.919 181.168 154.712 181.168 153.267C181.168 151.822 181.08 150.624 180.904 149.673C180.745 148.703 180.472 147.981 180.085 147.505C179.715 147.012 179.195 146.765 178.525 146.765C177.856 146.765 177.327 147.012 176.94 147.505C176.57 147.981 176.305 148.703 176.147 149.673C175.988 150.624 175.909 151.822 175.909 153.267ZM200.257 153.267C200.257 154.782 200.134 156.139 199.887 157.337C199.658 158.535 199.279 159.557 198.75 160.403C198.239 161.231 197.561 161.865 196.715 162.305C195.887 162.746 194.865 162.966 193.65 162.966C192.134 162.966 190.892 162.579 189.923 161.803C188.954 161.028 188.232 159.918 187.756 158.473C187.298 157.029 187.069 155.293 187.069 153.267C187.069 151.223 187.28 149.479 187.703 148.034C188.126 146.589 188.822 145.479 189.791 144.704C190.76 143.929 192.046 143.541 193.65 143.541C195.165 143.541 196.407 143.929 197.376 144.704C198.345 145.462 199.068 146.572 199.543 148.034C200.019 149.479 200.257 151.223 200.257 153.267ZM191.033 153.267C191.033 154.694 191.112 155.892 191.271 156.861C191.43 157.813 191.694 158.535 192.064 159.028C192.452 159.504 192.98 159.742 193.65 159.742C194.319 159.742 194.839 159.504 195.209 159.028C195.597 158.553 195.87 157.839 196.028 156.888C196.204 155.919 196.293 154.712 196.293 153.267C196.293 151.822 196.204 150.624 196.028 149.673C195.87 148.703 195.597 147.981 195.209 147.505C194.839 147.012 194.319 146.765 193.65 146.765C192.98 146.765 192.452 147.012 192.064 147.505C191.694 147.981 191.43 148.703 191.271 149.673C191.112 150.624 191.033 151.822 191.033 153.267ZM202.748 160.852C202.748 160.041 202.968 159.478 203.409 159.16C203.849 158.826 204.387 158.658 205.021 158.658C205.638 158.658 206.166 158.826 206.607 159.16C207.047 159.478 207.268 160.041 207.268 160.852C207.268 161.627 207.047 162.191 206.607 162.543C206.166 162.878 205.638 163.045 205.021 163.045C204.387 163.045 203.849 162.878 203.409 162.543C202.968 162.191 202.748 161.627 202.748 160.852ZM202.748 150.201C202.748 149.391 202.968 148.827 203.409 148.51C203.849 148.175 204.387 148.007 205.021 148.007C205.638 148.007 206.166 148.175 206.607 148.51C207.047 148.827 207.268 149.391 207.268 150.201C207.268 150.976 207.047 151.54 206.607 151.893C206.166 152.227 205.638 152.395 205.021 152.395C204.387 152.395 203.849 152.227 203.409 151.893C202.968 151.54 202.748 150.976 202.748 150.201ZM222.917 153.267C222.917 154.782 222.794 156.139 222.547 157.337C222.318 158.535 221.94 159.557 221.411 160.403C220.9 161.231 220.222 161.865 219.376 162.305C218.548 162.746 217.526 162.966 216.31 162.966C214.795 162.966 213.553 162.579 212.584 161.803C211.615 161.028 210.892 159.918 210.417 158.473C209.959 157.029 209.73 155.293 209.73 153.267C209.73 151.223 209.941 149.479 210.364 148.034C210.787 146.589 211.483 145.479 212.452 144.704C213.421 143.929 214.707 143.541 216.31 143.541C217.826 143.541 219.068 143.929 220.037 144.704C221.006 145.462 221.728 146.572 222.204 148.034C222.68 149.479 222.917 151.223 222.917 153.267ZM213.694 153.267C213.694 154.694 213.773 155.892 213.932 156.861C214.09 157.813 214.355 158.535 214.725 159.028C215.112 159.504 215.641 159.742 216.31 159.742C216.98 159.742 217.5 159.504 217.87 159.028C218.257 158.553 218.53 157.839 218.689 156.888C218.865 155.919 218.953 154.712 218.953 153.267C218.953 151.822 218.865 150.624 218.689 149.673C218.53 148.703 218.257 147.981 217.87 147.505C217.5 147.012 216.98 146.765 216.31 146.765C215.641 146.765 215.112 147.012 214.725 147.505C214.355 147.981 214.09 148.703 213.932 149.673C213.773 150.624 213.694 151.822 213.694 153.267ZM238.042 153.267C238.042 154.782 237.918 156.139 237.672 157.337C237.443 158.535 237.064 159.557 236.535 160.403C236.024 161.231 235.346 161.865 234.5 162.305C233.672 162.746 232.65 162.966 231.435 162.966C229.919 162.966 228.677 162.579 227.708 161.803C226.739 161.028 226.017 159.918 225.541 158.473C225.083 157.029 224.854 155.293 224.854 153.267C224.854 151.223 225.065 149.479 225.488 148.034C225.911 146.589 226.607 145.479 227.576 144.704C228.545 143.929 229.831 143.541 231.435 143.541C232.95 143.541 234.192 143.929 235.161 144.704C236.13 145.462 236.852 146.572 237.328 148.034C237.804 149.479 238.042 151.223 238.042 153.267ZM228.818 153.267C228.818 154.694 228.897 155.892 229.056 156.861C229.215 157.813 229.479 158.535 229.849 159.028C230.236 159.504 230.765 159.742 231.435 159.742C232.104 159.742 232.624 159.504 232.994 159.028C233.381 158.553 233.655 157.839 233.813 156.888C233.989 155.919 234.077 154.712 234.077 153.267C234.077 151.822 233.989 150.624 233.813 149.673C233.655 148.703 233.381 147.981 232.994 147.505C232.624 147.012 232.104 146.765 231.435 146.765C230.765 146.765 230.236 147.012 229.849 147.505C229.479 147.981 229.215 148.703 229.056 149.673C228.897 150.624 228.818 151.822 228.818 153.267ZM240.533 160.852C240.533 160.041 240.753 159.478 241.194 159.16C241.634 158.826 242.172 158.658 242.806 158.658C243.423 158.658 243.951 158.826 244.392 159.16C244.832 159.478 245.052 160.041 245.052 160.852C245.052 161.627 244.832 162.191 244.392 162.543C243.951 162.878 243.423 163.045 242.806 163.045C242.172 163.045 241.634 162.878 241.194 162.543C240.753 162.191 240.533 161.627 240.533 160.852ZM240.533 150.201C240.533 149.391 240.753 148.827 241.194 148.51C241.634 148.175 242.172 148.007 242.806 148.007C243.423 148.007 243.951 148.175 244.392 148.51C244.832 148.827 245.052 149.391 245.052 150.201C245.052 150.976 244.832 151.54 244.392 151.893C243.951 152.227 243.423 152.395 242.806 152.395C242.172 152.395 241.634 152.227 241.194 151.893C240.753 151.54 240.533 150.976 240.533 150.201ZM257.478 162.702H253.487V151.787C253.487 151.487 253.487 151.117 253.487 150.677C253.505 150.236 253.523 149.778 253.54 149.303C253.558 148.827 253.575 148.404 253.593 148.034C253.505 148.14 253.311 148.333 253.012 148.615C252.73 148.88 252.465 149.118 252.219 149.329L250.052 151.073L248.122 148.668L254.201 143.832H257.478V162.702ZM275.827 153.267C275.827 154.782 275.703 156.139 275.457 157.337C275.228 158.535 274.849 159.557 274.32 160.403C273.809 161.231 273.131 161.865 272.285 162.305C271.457 162.746 270.435 162.966 269.219 162.966C267.704 162.966 266.462 162.579 265.493 161.803C264.524 161.028 263.802 159.918 263.326 158.473C262.868 157.029 262.639 155.293 262.639 153.267C262.639 151.223 262.85 149.479 263.273 148.034C263.696 146.589 264.392 145.479 265.361 144.704C266.33 143.929 267.616 143.541 269.219 143.541C270.735 143.541 271.977 143.929 272.946 144.704C273.915 145.462 274.637 146.572 275.113 148.034C275.589 149.479 275.827 151.223 275.827 153.267ZM266.603 153.267C266.603 154.694 266.682 155.892 266.841 156.861C266.999 157.813 267.264 158.535 267.634 159.028C268.021 159.504 268.55 159.742 269.219 159.742C269.889 159.742 270.409 159.504 270.779 159.028C271.166 158.553 271.44 157.839 271.598 156.888C271.774 155.919 271.862 154.712 271.862 153.267C271.862 151.822 271.774 150.624 271.598 149.673C271.44 148.703 271.166 147.981 270.779 147.505C270.409 147.012 269.889 146.765 269.219 146.765C268.55 146.765 268.021 147.012 267.634 147.505C267.264 147.981 266.999 148.703 266.841 149.673C266.682 150.624 266.603 151.822 266.603 153.267Z" fill="#25262B"/>
<path d="M537.304 123.02H534.389C533.874 123.02 533.38 123.225 533.015 123.589C532.651 123.953 532.446 124.448 532.446 124.963V133.708C532.446 134.223 532.651 134.718 533.015 135.082C533.38 135.446 533.874 135.651 534.389 135.651H543.134C543.65 135.651 544.144 135.446 544.508 135.082C544.873 134.718 545.077 134.223 545.077 133.708V130.793" stroke="#25262B" stroke-width="2.33195" stroke-linecap="round" stroke-linejoin="round"/>
<path d="M537.304 130.793H540.219L548.478 122.534C548.865 122.148 549.082 121.623 549.082 121.077C549.082 120.53 548.865 120.006 548.478 119.619C548.092 119.233 547.567 119.016 547.021 119.016C546.474 119.016 545.95 119.233 545.563 119.619L537.304 127.878V130.793Z" stroke="#25262B" stroke-width="2.33195" stroke-linecap="round" stroke-linejoin="round"/>
<path d="M544.106 121.077L547.021 123.992" stroke="#25262B" stroke-width="2.33195" stroke-linecap="round" stroke-linejoin="round"/>
<path d="M561.984 123.02H577.53" stroke="#25262B" stroke-width="2.13762" stroke-linecap="round" stroke-linejoin="round"/>
<path d="M567.814 126.906V132.736" stroke="#25262B" stroke-width="2.13762" stroke-linecap="round" stroke-linejoin="round"/>
<path d="M571.701 126.906V132.736" stroke="#25262B" stroke-width="2.13762" stroke-linecap="round" stroke-linejoin="round"/>
<path d="M562.956 123.02L563.927 134.68C563.927 135.195 564.132 135.689 564.497 136.054C564.861 136.418 565.355 136.623 565.871 136.623H573.644C574.159 136.623 574.653 136.418 575.018 136.054C575.382 135.689 575.587 135.195 575.587 134.68L576.559 123.02" stroke="#25262B" stroke-width="2.13762" stroke-linecap="round" stroke-linejoin="round"/>
<path d="M566.842 123.02V120.105C566.842 119.847 566.945 119.6 567.127 119.418C567.309 119.235 567.556 119.133 567.814 119.133H571.701C571.958 119.133 572.205 119.235 572.388 119.418C572.57 119.6 572.672 119.847 572.672 120.105V123.02" stroke="#25262B" stroke-width="2.13762" stroke-linecap="round" stroke-linejoin="round"/>
<rect x="443.92" y="145.757" width="62.5298" height="26.4288" rx="6.21854" fill="#4C6EF5"/>
<path d="M460.632 154.437H459.337C458.979 154.437 458.689 154.727 458.689 155.085V162.858C458.689 163.216 458.979 163.506 459.337 163.506H460.632C460.99 163.506 461.28 163.216 461.28 162.858V155.085C461.28 154.727 460.99 154.437 460.632 154.437Z" stroke="#F8F9FA" stroke-width="2.13762" stroke-linecap="round" stroke-linejoin="round"/>
<path d="M465.815 154.437H464.519C464.162 154.437 463.872 154.727 463.872 155.085V162.858C463.872 163.216 464.162 163.506 464.519 163.506H465.815C466.173 163.506 466.463 163.216 466.463 162.858V155.085C466.463 154.727 466.173 154.437 465.815 154.437Z" stroke="#F8F9FA" stroke-width="2.13762" stroke-linecap="round" stroke-linejoin="round"/>
<path d="M479.618 156.061V155.23C479.422 155.687 479.198 156.144 478.955 156.583V162.991H477.901V158.225C477.696 158.495 477.482 158.747 477.267 158.971C477.164 158.7 476.866 158.085 476.679 157.823C477.519 156.984 478.321 155.659 478.797 154.326L479.851 154.661C479.795 154.811 479.73 154.969 479.664 155.118H481.95V154.307H483.069V155.118H485.522V156.061H479.618ZM481.269 157.124V157.637H483.797V157.124H481.269ZM484.916 158.374H480.215V156.396H484.916V158.374ZM480.681 160.836V159.96H484.375V160.836H483.06V161.928C483.06 162.45 482.957 162.721 482.575 162.87C482.183 163.019 481.66 163.019 480.952 163.019C480.914 162.711 480.774 162.31 480.644 162.012C481.082 162.04 481.623 162.04 481.763 162.03C481.912 162.03 481.95 161.993 481.95 161.89V160.836H480.681ZM479.394 158.728H485.643V160.519H484.627V159.577H480.364V160.529H479.394V158.728ZM491.529 161.433H494.813V162.543H486.296V161.433H487.481V156.21H488.647V161.433H490.345V154.298H491.529V157.208H494.309V158.327H491.529V161.433Z" fill="#F8F9FA"/>
<rect x="518.887" y="145.757" width="62.5298" height="26.4288" rx="6.21854" fill="#CED4DA"/>
<path d="M540.781 154.437H534.303C533.588 154.437 533.008 155.017 533.008 155.733V162.21C533.008 162.926 533.588 163.506 534.303 163.506H540.781C541.497 163.506 542.077 162.926 542.077 162.21V155.733C542.077 155.017 541.497 154.437 540.781 154.437Z" stroke="#25262B" stroke-width="2.13762" stroke-linecap="round" stroke-linejoin="round"/>
<path d="M552.197 159.754L553.111 159.913C553.018 160.789 552.822 161.722 552.551 162.319C552.355 162.198 551.945 162.002 551.702 161.918C551.973 161.368 552.122 160.538 552.197 159.754ZM554.221 159.922L555.004 159.679C555.238 160.211 555.48 160.892 555.583 161.358L554.762 161.657C554.678 161.191 554.435 160.472 554.221 159.922ZM555.741 161.61L556.385 160.827C557.588 161.153 559.034 161.76 559.892 162.226L559.249 163.093C558.437 162.58 556.954 161.955 555.741 161.61ZM556.749 159.95L557.374 159.25C558.045 159.512 558.847 159.931 559.304 160.267L558.661 161.041C558.222 160.687 557.411 160.211 556.749 159.95ZM558.698 156.135H557.075C557.299 156.499 557.57 156.853 557.887 157.189C558.204 156.862 558.474 156.508 558.698 156.135ZM559.454 155.146L560.144 155.529C559.79 156.424 559.267 157.198 558.642 157.861C559.258 158.336 559.967 158.719 560.713 158.961C560.48 159.185 560.163 159.596 560.013 159.866C559.239 159.558 558.53 159.11 557.896 158.551C557.243 159.092 556.525 159.512 555.797 159.819C555.732 159.679 555.611 159.493 555.471 159.316L554.79 159.624C554.762 159.493 554.725 159.334 554.678 159.166L554.202 159.204V163.019H553.241V159.269L551.889 159.353L551.796 158.392L552.467 158.364C552.607 158.187 552.756 157.982 552.906 157.767C552.635 157.366 552.187 156.872 551.805 156.499L552.337 155.743C552.402 155.799 552.477 155.864 552.551 155.93C552.812 155.417 553.074 154.801 553.232 154.307L554.193 154.661C553.857 155.295 553.484 156.014 553.148 156.536C553.269 156.667 553.372 156.797 553.465 156.909C553.782 156.387 554.081 155.855 554.295 155.398L555.2 155.818C554.687 156.629 554.044 157.571 553.456 158.327L554.351 158.29C554.249 158.056 554.137 157.823 554.025 157.618L554.762 157.31C555.023 157.777 555.284 158.336 555.443 158.812C556.058 158.56 556.646 158.224 557.168 157.823C556.907 157.534 556.674 157.217 556.46 156.89C556.208 157.17 555.937 157.441 555.629 157.693C555.461 157.459 555.107 157.114 554.864 156.974C555.881 156.2 556.543 155.174 556.889 154.297L557.971 154.475C557.868 154.708 557.756 154.95 557.625 155.183H559.286L559.454 155.146ZM568.455 154.876L569.323 155.519C568.502 156.527 567.298 157.693 566.17 158.402V161.713C566.17 162.357 566.011 162.655 565.554 162.823C565.088 162.991 564.425 163.01 563.53 163.01C563.465 162.674 563.259 162.179 563.092 161.872C563.745 161.909 564.509 161.909 564.724 161.9C564.929 161.9 564.994 161.853 564.994 161.694V157.469H565.619C566.188 157.068 566.767 156.545 567.233 156.042H561.823V154.95H568.185L568.455 154.876Z" fill="#25262B"/>
<path d="M-24.1134 178.404V110H-31.8866V178.404H-24.1134Z" fill="#30BCF9" mask="url(#path-25-inside-2_928_95900)"/>
<rect x="-27.6113" y="110.389" width="621.077" height="67.6266" stroke="#E9ECEF" stroke-width="0.777317"/>
<path d="M452.484 222.56L449.859 203.267L461.089 205.095L452.484 222.56Z" fill="#F7CC2E"/>
<path d="M443.237 225.025L425.57 216.841L433.16 208.365L443.237 225.025Z" fill="#F7CC2E"/>
<path d="M441.613 233.211L425.861 244.654L422.155 233.897L441.613 233.211Z" fill="#F7CC2E"/>
</g>
<rect x="1.5" y="2" width="607" height="392" stroke="#F7CC2E" stroke-width="3"/>
</svg>
