<svg width="152" height="152" viewBox="0 0 152 152" fill="none" xmlns="http://www.w3.org/2000/svg">
<circle cx="76" cy="76" r="74.5" fill="white" stroke="#F6C515" stroke-width="3"/>
<path d="M71.5961 69.7306L71.3796 69.8961L71.2352 70.1271C69.5798 72.7758 67.8558 75.2808 66.0635 77.6425C64.5712 79.2801 63.0559 80.9883 61.5176 82.767L61.4417 82.8548L61.3802 82.9532C60.4104 84.5048 60.2344 86.2057 60.8898 87.9099L60.9809 88.1467L61.1448 88.3403C61.8228 89.1416 62.7021 89.7815 63.8011 89.896C64.907 90.0111 65.895 89.5594 66.7106 88.9006L66.7456 88.8724L66.7787 88.8422C68.0406 87.6917 69.2566 86.4224 70.4275 85.0363V115.922V115.944L70.4281 115.965C70.4585 117.028 70.73 118.052 71.4045 118.869C72.0907 119.701 73.0455 120.14 74.0873 120.303L74.2986 120.336L74.5108 120.308C75.554 120.174 76.4932 119.748 77.2135 118.97C77.9161 118.21 78.3025 117.231 78.4796 116.169L78.5 116.046V115.922V72.8062V72.7486L78.4956 72.6911C78.4316 71.8594 78.1999 71.0685 77.7408 70.3799C77.278 69.6857 76.6371 69.1754 75.8816 68.8319L75.6858 68.743L75.473 68.7126C74.0559 68.5101 72.734 68.8604 71.5961 69.7306Z" fill="#F6C515" stroke="#F6C515" stroke-width="3"/>
<path d="M42.1576 39.9138L42.1103 39.9472L42.0719 39.9906C41.1365 41.0467 40.6653 42.2942 40.6653 43.7104V43.7403L40.6688 43.77C40.849 45.2712 41.5161 46.5168 42.6613 47.4812L42.6613 47.4812L42.6662 47.4852C43.7665 48.388 44.9385 49.1511 46.182 49.7735C46.832 50.1258 47.5103 50.5193 48.217 50.9542C48.8184 51.3243 49.1821 51.7986 49.3459 52.3832C49.347 52.5208 49.293 52.6353 49.1108 52.7568L49.0739 52.7814L49.0419 52.8122C48.4685 53.3626 47.7646 53.5978 46.88 53.5022L46.8428 53.4982L46.8054 53.4997C46.2243 53.5239 45.6369 53.416 45.0388 53.1674C44.805 53.0651 44.6672 52.9356 44.5856 52.7918C44.5016 52.6439 44.4515 52.4354 44.4737 52.1355L44.4762 52.1019L44.4742 52.0683C44.4411 51.5219 44.2613 51.0383 43.8851 50.6819C43.5145 50.3308 43.0129 50.1599 42.4464 50.1127L42.403 50.1091L42.3596 50.113C41.8253 50.1616 41.351 50.3387 41.0084 50.7015C40.6655 51.0646 40.5165 51.5479 40.5002 52.0834L40.4996 52.1038L40.5007 52.1241C40.588 53.8276 41.1292 55.187 42.1879 56.1202C43.2349 57.0431 44.7144 57.4837 46.55 57.5153C48.6254 57.7151 50.484 57.1677 52.0971 55.8773L52.1275 55.8529L52.1537 55.8242C53.1163 54.7715 53.6181 53.5262 53.6482 52.1092L53.6487 52.0839L53.6467 52.0586C53.5254 50.542 52.8505 49.2994 51.6421 48.3607C50.5422 47.4589 49.3707 46.6966 48.1278 46.0748C47.4491 45.7218 46.7563 45.3415 46.0494 44.9338C45.4672 44.5737 45.117 44.0884 44.9728 43.4586C44.9843 43.3205 45.0522 43.1784 45.2421 43.023L45.249 43.0173L45.2558 43.0114C45.8388 42.4983 46.5656 42.2436 47.4739 42.2681L47.4739 42.2683H47.4874C47.9823 42.2683 48.4971 42.3742 49.0348 42.5962C49.2184 43.118 49.3207 43.6473 49.3431 44.1857L49.3436 44.1973L49.3446 44.2089C49.393 44.758 49.573 45.2428 49.9333 45.6031C50.2936 45.9635 50.7785 46.1434 51.3276 46.1919L51.3495 46.1938H51.3715C51.9491 46.1938 52.4718 46.0444 52.8511 45.6651C53.2192 45.297 53.377 44.7872 53.3989 44.2192C53.7198 42.4654 53.2027 40.943 51.8777 39.7084L51.8716 39.7027L51.8654 39.6973C50.6949 38.6768 49.294 38.21 47.6947 38.2925C45.6884 38.1822 43.8372 38.7265 42.1576 39.9138ZM70.3258 40.1535L70.3111 40.1527H70.2965H67.3668V35.6528V35.639L67.3661 35.6251C67.3343 35.0541 67.1719 34.5465 66.8253 34.1614C66.4759 33.7731 65.9928 33.5687 65.4377 33.5034L65.3884 33.4976L65.3389 33.5016C64.748 33.5495 64.23 33.7389 63.8421 34.1173C63.4545 34.4955 63.2518 35.009 63.188 35.5991L63.1851 35.6259V35.6528V40.1527H60.0902H60.0755L60.0609 40.1535C59.5087 40.186 59.0173 40.3578 58.6575 40.7275C58.2997 41.0953 58.1354 41.594 58.1035 42.153L58.1018 42.1819L58.1035 42.2109C58.1358 42.7602 58.3022 43.2497 58.6575 43.6149C59.0127 43.9799 59.4976 44.16 60.0463 44.2085L60.0682 44.2104H60.0902H63.1851V55.1976V55.2232L63.1877 55.2486C63.2501 55.8567 63.4499 56.3896 63.8614 56.7509C64.278 57.1167 64.8253 57.2317 65.4197 57.1835L65.4232 57.1832C65.9684 57.1351 66.4516 56.9604 66.8072 56.6048C67.1647 56.2473 67.3332 55.767 67.3659 55.2278L67.3668 55.2127V55.1976V44.2104H70.2965H70.3185L70.3404 44.2085C70.8895 44.16 71.3744 43.9801 71.7347 43.6197C72.095 43.2594 72.2749 42.7746 72.3234 42.2255L72.3272 42.1821L72.3235 42.1388C72.2756 41.5798 72.0976 41.0856 71.7347 40.7226C71.3698 40.3578 70.8786 40.186 70.3258 40.1535ZM89.3882 40.6094L89.3658 40.5842L89.3402 40.5623C87.6984 39.155 85.7917 38.5329 83.6489 38.7077C81.2293 38.8547 79.2419 39.8547 77.7205 41.698L77.7199 41.6986C76.2407 43.4969 75.4987 45.5791 75.4987 47.9251L75.4988 47.9314C75.5279 50.2611 76.3484 52.2704 77.9529 53.9333C79.549 55.5874 81.502 56.549 83.7931 56.81L83.8012 56.8109L83.8093 56.8116C85.937 56.9841 87.9556 56.5954 89.855 55.6464C90.3065 55.4282 90.6595 55.1077 90.8411 54.6638C91.0209 54.2244 91.0028 53.7369 90.8586 53.2401L90.844 53.1901L90.8196 53.1442C90.5625 52.6623 90.2116 52.2869 89.7411 52.1068C89.2687 51.9259 88.7605 51.974 88.2558 52.1694L88.2435 52.1742L88.2315 52.1796C86.9589 52.7509 85.6547 52.9833 84.3119 52.8818C82.9077 52.711 81.8074 52.2472 80.9778 51.5167C80.2769 50.8995 79.7432 50.069 79.3899 49.0036H90.0065H90.0145L90.0226 49.0033C90.5353 48.9868 90.9985 48.8387 91.3515 48.5058C91.7021 48.1753 91.8843 47.7187 91.9489 47.202L91.9534 47.1654L91.9526 47.1284C91.8947 44.6412 91.0376 42.4613 89.3882 40.6094ZM107.39 39.3852L107.338 39.3572L107.28 39.3422C104.465 38.6125 101.813 38.9457 99.3491 40.3369V40.2394V40.1819L99.3361 40.1258C99.221 39.6328 98.9932 39.211 98.6153 38.9226C98.2378 38.6345 97.7702 38.525 97.2628 38.5414L97.2442 38.542L97.2257 38.544C96.7478 38.5952 96.3227 38.7753 96.0252 39.1365C95.7337 39.4905 95.622 39.9497 95.622 40.446V43.6691V43.6867L95.6232 43.7043C95.788 46.0392 95.9116 48.3602 95.9941 50.6674C96.0761 53.7878 96.0078 56.8527 95.7893 59.8621C95.727 60.4224 95.8111 60.9432 96.0957 61.3796C96.3815 61.8179 96.829 62.1086 97.373 62.2846L97.4797 62.3191L97.5909 62.3048C98.1054 62.2384 98.5554 62.0444 98.8976 61.6927C99.2371 61.3438 99.4288 60.8825 99.5088 60.3549L99.5108 60.3419L99.512 60.3287C99.7304 58.0963 99.8533 55.8637 99.8805 53.6311C101.71 54.7786 103.728 55.179 105.913 54.8233L105.939 54.8191L105.965 54.812C107.76 54.3197 109.149 53.4302 110.082 52.1201C111.01 50.8191 111.453 49.1528 111.456 47.1625C111.61 45.418 111.36 43.876 110.677 42.5604C109.989 41.2374 108.882 40.1819 107.39 39.3852ZM99.5769 45.2584C101.444 43.3344 103.57 42.6478 106.005 43.1463C107.27 44.0247 107.855 45.3131 107.73 47.1054L107.73 47.1054L107.73 47.1157C107.678 48.1816 107.426 49.0087 107.008 49.6293C106.603 50.2321 106.018 50.6737 105.225 50.9472C103.994 51.0913 102.939 50.9127 102.037 50.4372C101.15 49.9698 100.374 49.196 99.721 48.0807V48.0208C99.7696 47.0804 99.7218 46.1594 99.5769 45.2584ZM86.6772 43.5277C87.0736 43.984 87.3615 44.4834 87.5437 45.0285H80.0887C80.8816 43.5655 82.1341 42.7242 83.8837 42.475C84.9494 42.4823 85.8736 42.8307 86.6772 43.5277Z" fill="#F6C515" stroke="#F6C515"/>
</svg>
