<svg width="152" height="152" viewBox="0 0 152 152" fill="none" xmlns="http://www.w3.org/2000/svg">
<circle cx="76" cy="76" r="74.5" fill="white" stroke="#F6C515" stroke-width="3"/>
<path d="M60.4396 68.1888L60.2632 68.2469L60.1063 68.3463C59.1368 68.9603 58.3589 69.759 57.9369 70.7839C57.5105 71.8193 57.5149 72.9221 57.8212 74.0114L57.8494 74.1114L57.891 74.2065C58.356 75.2695 59.0773 76.173 60.1511 76.6428C61.2188 77.1099 62.3759 77.0346 63.4839 76.6761L63.5061 76.669L63.5281 76.6611C66.9182 75.4467 70.4369 74.6109 74.0865 74.1546C77.5451 73.7284 80.9046 74.1535 84.1867 75.4373C85.6374 76.8741 86.4937 78.5162 86.8055 80.3897C86.8257 82.4263 86.1574 84.0586 84.8058 85.3932C82.2152 87.44 79.2778 88.7007 75.9669 89.1823C72.4688 89.6379 68.9999 89.7385 65.5586 89.4854L65.5037 89.4814H65.4486H64.1963H64.1546L64.1131 89.4837C62.945 89.5486 61.8542 89.8839 60.9894 90.6252C60.1177 91.3724 59.6332 92.3967 59.4317 93.5385L59.4089 93.6678V93.7991V94.1905V94.2346L59.4115 94.2786C59.4785 95.4173 59.8377 96.4955 60.6652 97.3006C61.4867 98.1 62.5754 98.4404 63.7193 98.5058L63.7621 98.5082H63.8049H64.1963H70.0666H70.1575L70.2477 98.4973C73.9029 98.0527 77.6469 98.3463 81.4908 99.3946L81.4955 99.3959C83.2661 99.8726 84.4463 100.687 85.1947 101.76C85.953 102.848 86.3817 104.365 86.3344 106.445L86.3308 106.604L86.3605 106.76C86.526 107.628 86.4619 108.341 86.2347 108.944C86.0168 109.522 85.6153 110.088 84.9565 110.632C81.8026 112.374 78.4567 113.097 74.8829 112.811C71.084 112.503 67.3644 111.964 63.7236 111.195L63.6317 111.175L63.5381 111.168C62.3599 111.069 61.224 111.263 60.2591 111.899C59.2924 112.537 58.6708 113.505 58.3077 114.627L58.242 114.83L58.2355 115.043C58.2021 116.148 58.4425 117.21 59.1058 118.087C59.7693 118.965 60.7259 119.485 61.7974 119.753L61.8052 119.755L61.8131 119.757C66.5168 120.879 71.3506 121.466 76.3121 121.52L76.3123 121.52C81.486 121.575 86.2945 120.305 90.7072 117.713L90.8472 117.63L90.9664 117.52C94.0954 114.623 95.6509 110.983 95.5957 106.704V106.108C95.6769 103.014 95.0489 100.238 93.6501 97.8379C92.6268 96.0821 91.22 94.5774 89.4627 93.3132C90.1128 92.8414 90.7411 92.3296 91.3477 91.7782L91.4016 91.7292L91.4505 91.6752C94.195 88.6448 95.5957 85.1065 95.5957 81.1193V79.867V79.8134L95.5919 79.7601C95.2477 74.9417 93.1001 70.9805 89.2258 67.9608L89.0788 67.8462L88.9083 67.7711C84.2974 65.7402 79.4811 64.9409 74.4825 65.3791C69.6699 65.754 64.988 66.6905 60.4396 68.1888Z" fill="#F6C515" stroke="#F6C515" stroke-width="3"/>
<path d="M42.1576 37.9138L42.1103 37.9472L42.0719 37.9906C41.1365 39.0467 40.6653 40.2942 40.6653 41.7104V41.7403L40.6688 41.77C40.849 43.2712 41.5161 44.5168 42.6613 45.4812L42.6613 45.4812L42.6662 45.4852C43.7665 46.388 44.9385 47.1511 46.182 47.7735C46.832 48.1258 47.5103 48.5193 48.217 48.9542C48.8184 49.3243 49.1821 49.7986 49.3459 50.3832C49.347 50.5208 49.293 50.6353 49.1108 50.7568L49.0739 50.7814L49.0419 50.8122C48.4685 51.3626 47.7646 51.5978 46.88 51.5022L46.8428 51.4982L46.8054 51.4997C46.2243 51.5239 45.6369 51.416 45.0388 51.1674C44.805 51.0651 44.6672 50.9356 44.5856 50.7918C44.5016 50.6439 44.4515 50.4354 44.4737 50.1355L44.4762 50.1019L44.4742 50.0683C44.4411 49.5219 44.2613 49.0383 43.8851 48.6819C43.5145 48.3308 43.0129 48.1599 42.4464 48.1127L42.403 48.1091L42.3596 48.113C41.8253 48.1616 41.351 48.3387 41.0084 48.7015C40.6655 49.0646 40.5165 49.5479 40.5002 50.0834L40.4996 50.1038L40.5007 50.1241C40.588 51.8276 41.1292 53.187 42.1879 54.1202C43.2349 55.0431 44.7144 55.4837 46.55 55.5153C48.6254 55.7151 50.484 55.1677 52.0971 53.8773L52.1275 53.8529L52.1537 53.8242C53.1163 52.7715 53.6181 51.5262 53.6482 50.1092L53.6487 50.0839L53.6467 50.0586C53.5254 48.542 52.8505 47.2994 51.6421 46.3606C50.5422 45.4588 49.3707 44.6966 48.1277 44.0748C47.4491 43.7218 46.7563 43.3415 46.0494 42.9338C45.4672 42.5737 45.117 42.0884 44.9728 41.4586C44.9843 41.3205 45.0521 41.1784 45.2421 41.023L45.249 41.0173L45.2558 41.0114C45.8388 40.4983 46.5656 40.2436 47.4739 40.2681L47.4739 40.2683H47.4874C47.9823 40.2683 48.4971 40.3742 49.0348 40.5962C49.2184 41.118 49.3207 41.6473 49.3431 42.1857L49.3436 42.1973L49.3446 42.2089C49.393 42.758 49.573 43.2428 49.9333 43.6031C50.2936 43.9635 50.7785 44.1434 51.3276 44.1919L51.3495 44.1938H51.3715C51.9491 44.1938 52.4718 44.0444 52.8511 43.6651C53.2192 43.297 53.377 42.7872 53.3989 42.2192C53.7198 40.4654 53.2027 38.943 51.8777 37.7084L51.8716 37.7027L51.8654 37.6973C50.6949 36.6768 49.294 36.21 47.6947 36.2925C45.6884 36.1822 43.8372 36.7265 42.1576 37.9138ZM70.3258 38.1535L70.3111 38.1527H70.2965H67.3668V33.6528V33.639L67.3661 33.6251C67.3343 33.0541 67.1719 32.5465 66.8253 32.1614C66.4759 31.7731 65.9928 31.5687 65.4377 31.5034L65.3884 31.4976L65.3389 31.5016C64.748 31.5495 64.23 31.7389 63.8421 32.1173C63.4545 32.4955 63.2518 33.009 63.188 33.5991L63.1851 33.6259V33.6528V38.1527H60.0902H60.0755L60.0609 38.1535C59.5087 38.186 59.0173 38.3578 58.6575 38.7275C58.2997 39.0953 58.1354 39.594 58.1035 40.153L58.1018 40.1819L58.1035 40.2109C58.1358 40.7602 58.3022 41.2497 58.6575 41.6149C59.0127 41.9799 59.4976 42.16 60.0463 42.2085L60.0682 42.2104H60.0902H63.1851V53.1976V53.2232L63.1877 53.2486C63.2501 53.8567 63.4499 54.3896 63.8614 54.7509C64.278 55.1167 64.8253 55.2317 65.4197 55.1835L65.4232 55.1832C65.9684 55.1351 66.4516 54.9604 66.8072 54.6048C67.1647 54.2473 67.3332 53.767 67.3659 53.2278L67.3668 53.2127V53.1976V42.2104H70.2965H70.3185L70.3404 42.2085C70.8895 42.16 71.3744 41.9801 71.7347 41.6197C72.095 41.2594 72.2749 40.7746 72.3234 40.2255L72.3272 40.1821L72.3235 40.1388C72.2756 39.5798 72.0976 39.0856 71.7347 38.7226C71.3698 38.3578 70.8786 38.186 70.3258 38.1535ZM89.3882 38.6094L89.3658 38.5842L89.3402 38.5623C87.6984 37.155 85.7917 36.5329 83.6489 36.7077C81.2293 36.8547 79.2419 37.8547 77.7205 39.698L77.7199 39.6986C76.2407 41.4969 75.4987 43.5791 75.4987 45.9251L75.4988 45.9314C75.5279 48.2611 76.3484 50.2704 77.9529 51.9333C79.549 53.5874 81.502 54.549 83.7931 54.81L83.8012 54.8109L83.8093 54.8116C85.937 54.9841 87.9556 54.5954 89.855 53.6464C90.3065 53.4282 90.6595 53.1077 90.8411 52.6638C91.0209 52.2244 91.0028 51.7369 90.8585 51.2401L90.844 51.1901L90.8196 51.1442C90.5625 50.6623 90.2116 50.2869 89.7411 50.1068C89.2687 49.9259 88.7605 49.974 88.2558 50.1694L88.2435 50.1742L88.2315 50.1796C86.9589 50.7509 85.6547 50.9833 84.3119 50.8818C82.9077 50.711 81.8074 50.2472 80.9778 49.5167C80.2769 48.8995 79.7432 48.069 79.3899 47.0036H90.0065H90.0145L90.0226 47.0033C90.5353 46.9868 90.9985 46.8387 91.3515 46.5058C91.7021 46.1753 91.8843 45.7187 91.9489 45.202L91.9534 45.1654L91.9526 45.1284C91.8947 42.6412 91.0376 40.4613 89.3882 38.6094ZM107.39 37.3852L107.338 37.3572L107.28 37.3422C104.465 36.6125 101.813 36.9457 99.3491 38.3369V38.2394V38.1819L99.3361 38.1258C99.221 37.6328 98.9932 37.211 98.6153 36.9226C98.2378 36.6345 97.7702 36.525 97.2628 36.5414L97.2442 36.542L97.2257 36.544C96.7478 36.5952 96.3227 36.7753 96.0252 37.1365C95.7337 37.4905 95.622 37.9497 95.622 38.446V41.6691V41.6867L95.6232 41.7043C95.788 44.0392 95.9116 46.3602 95.9941 48.6674C96.0761 51.7878 96.0078 54.8527 95.7893 57.8621C95.727 58.4224 95.8111 58.9432 96.0957 59.3796C96.3815 59.8179 96.829 60.1086 97.373 60.2846L97.4797 60.3191L97.5909 60.3048C98.1054 60.2384 98.5554 60.0444 98.8976 59.6927C99.2371 59.3438 99.4289 58.8825 99.5088 58.3549L99.5108 58.3419L99.512 58.3287C99.7304 56.0963 99.8533 53.8637 99.8805 51.6311C101.71 52.7786 103.728 53.179 105.913 52.8233L105.939 52.8191L105.965 52.812C107.76 52.3197 109.149 51.4302 110.082 50.1201C111.01 48.8191 111.453 47.1528 111.456 45.1625C111.61 43.418 111.36 41.876 110.677 40.5604C109.989 39.2374 108.882 38.1819 107.39 37.3852ZM99.5769 43.2584C101.444 41.3344 103.57 40.6478 106.005 41.1463C107.27 42.0247 107.855 43.3131 107.73 45.1054L107.73 45.1054L107.73 45.1157C107.678 46.1816 107.426 47.0087 107.008 47.6293C106.603 48.2321 106.018 48.6737 105.225 48.9472C103.994 49.0913 102.939 48.9127 102.037 48.4372C101.15 47.9698 100.374 47.196 99.721 46.0807V46.0208C99.7696 45.0804 99.7218 44.1594 99.5769 43.2584ZM86.6772 41.5277C87.0736 41.9841 87.3615 42.4834 87.5437 43.0285H80.0887C80.8816 41.5655 82.1341 40.7242 83.8837 40.475C84.9494 40.4823 85.8736 40.8307 86.6772 41.5277Z" fill="#F6C515" stroke="#F6C515"/>
</svg>
