<svg width="60" height="61" viewBox="0 0 60 61" fill="none" xmlns="http://www.w3.org/2000/svg">
<rect y="0.5" width="60" height="60" rx="30" fill="#FADF7B"/>
<path d="M44.7702 45.9877C45.3241 47.0473 44.8767 47.8164 43.428 48.2949C41.894 48.7734 40.9353 48.4145 40.5518 47.2182C39.1883 44.142 37.8887 40.9803 36.653 37.7331H22.9753C21.7397 40.8094 20.5466 43.9027 19.3961 47.0131C18.8422 48.1411 17.8622 48.4829 16.4561 48.0386C15.3056 47.5259 14.8369 46.7568 15.0499 45.7314L27.5133 13.6358C27.982 12.8497 28.7489 12.4737 29.8142 12.5079C30.8794 12.4395 31.6251 12.8155 32.0512 13.6358L44.7702 45.9877ZM24.8289 33.734H34.7356C33.0738 29.0513 31.4334 24.3856 29.8142 19.7371C28.2802 24.3856 26.6185 29.0513 24.8289 33.734Z" fill="white"/>
</svg>
