<svg width="60" height="61" viewBox="0 0 60 61" fill="none" xmlns="http://www.w3.org/2000/svg">
<rect y="0.5" width="60" height="60" rx="30" fill="white"/>
<path d="M46.2362 43.463C47.3284 43.9615 47.7127 44.726 47.389 45.7564C46.7418 46.82 45.7306 47.169 44.3552 46.8034C42.1709 46.0722 40.1483 45.1249 38.2876 43.9615C35.5369 46.5541 32.1997 47.9003 28.2759 48C23.4622 47.7673 19.6194 45.9226 16.7474 42.4658C13.9158 39.009 12.5 35.0204 12.5 30.5C12.5 26.0793 13.9158 22.1239 16.7474 18.6339C19.5789 15.1439 23.4218 13.2659 28.2759 13C33.0896 13.2659 36.9122 15.1439 39.7438 18.6339C42.6158 22.1239 44.0316 26.0793 43.9912 30.5C44.0316 34.2559 43.1215 37.6961 41.2607 40.8205C42.6765 41.9839 44.335 42.8647 46.2362 43.463ZM28.2759 44.2108C30.6221 44.2108 32.6042 43.463 34.2222 41.9672C32.4019 40.3386 30.6019 38.5935 28.822 36.7322C27.9725 35.7018 28.1546 34.8708 29.3681 34.2393C30.3794 33.5081 31.4311 33.5745 32.5233 34.4387C34.02 36.1007 35.5976 37.5632 37.2561 38.8262C38.8336 36.3333 39.6629 33.5579 39.7438 30.5C39.7438 27.1097 38.6921 24.0351 36.5886 21.2764C34.5256 18.4843 31.7547 16.972 28.2759 16.7393C24.7162 16.9387 21.8846 18.4345 19.7812 21.2265C17.7182 23.9853 16.7271 27.0764 16.808 30.5C16.7676 33.99 17.7789 37.0978 19.8419 39.8234C21.9453 42.5489 24.7567 44.0114 28.2759 44.2108Z" fill="#026B47"/>
</svg>
