<svg width="152" height="152" viewBox="0 0 152 152" fill="none" xmlns="http://www.w3.org/2000/svg">
<circle cx="76" cy="76" r="74.5" fill="white" stroke="#F6C515" stroke-width="3"/>
<path d="M75.5947 64.0391L75.5199 64.0344L75.4451 64.0372C69.5296 64.2583 64.8041 66.0773 61.4985 69.6767C58.2142 73.253 56.5254 78.3775 56.2262 84.8232L56.2246 84.858V84.8928C56.2246 85.9605 56.4681 86.978 57.0728 87.8329C57.6826 88.695 58.5601 89.2509 59.5712 89.5647L59.81 89.6388L60.0599 89.6314C61.2071 89.5977 62.28 89.2776 63.1488 88.5536C64.0137 87.8328 64.5299 86.8338 64.7942 85.7104L64.8271 85.5708L64.8329 85.4275C65.0097 81.0572 66.0644 77.9806 67.7895 75.9755C69.467 74.0256 71.9514 72.8896 75.4655 72.7276C77.8334 72.952 79.6551 73.7866 81.0375 75.169C82.4549 76.5864 83.5234 78.6935 84.1425 81.6293C84.8208 85.2795 84.4036 88.6665 82.9132 91.8397L82.9092 91.8482L82.9053 91.8567C81.3999 95.1687 79.4542 98.0107 77.0731 100.398C74.2806 102.93 71.3599 105.281 68.3107 107.452L68.2778 107.475L68.2462 107.5C65.3891 109.775 62.6108 112.077 59.9112 114.406C59.2155 114.994 58.6986 115.736 58.4795 116.634C58.262 117.526 58.3725 118.431 58.6835 119.295C59.0072 120.194 59.5433 120.972 60.3414 121.511C61.133 122.046 62.0576 122.262 63.0181 122.262H89.8014H89.8468L89.8921 122.259C91.0166 122.191 92.0715 121.835 92.8818 121.047C93.6861 120.264 94.082 119.218 94.2143 118.093L94.2324 117.94L94.2188 117.786C94.118 116.644 93.7417 115.594 92.9889 114.76C92.238 113.928 91.2308 113.441 90.1038 113.209L89.9542 113.178H89.8014H75.6368C78.2129 111.1 80.7192 108.886 83.1559 106.537C89.3441 101.056 92.7701 94.0065 93.4301 85.4826L93.438 85.3807L93.4319 85.2788C93.3217 83.4045 93.0465 81.5568 92.6063 79.7367C91.56 74.9572 89.6429 71.1517 86.7536 68.4667C83.8472 65.7658 80.0871 64.3198 75.5947 64.0391Z" fill="#F6C515" stroke="#F6C515" stroke-width="3"/>
<path d="M42.1576 36.9138L42.1103 36.9472L42.0719 36.9906C41.1365 38.0467 40.6653 39.2942 40.6653 40.7104V40.7403L40.6688 40.77C40.849 42.2712 41.5161 43.5168 42.6613 44.4812L42.6613 44.4812L42.6662 44.4852C43.7665 45.388 44.9385 46.1511 46.182 46.7735C46.832 47.1258 47.5103 47.5193 48.217 47.9542C48.8184 48.3243 49.1821 48.7986 49.3459 49.3832C49.347 49.5208 49.293 49.6353 49.1108 49.7568L49.0739 49.7814L49.0419 49.8122C48.4685 50.3626 47.7646 50.5978 46.88 50.5022L46.8428 50.4982L46.8054 50.4997C46.2243 50.5239 45.6369 50.416 45.0388 50.1674C44.805 50.0651 44.6672 49.9356 44.5856 49.7918C44.5016 49.6439 44.4515 49.4354 44.4737 49.1355L44.4762 49.1019L44.4742 49.0683C44.4411 48.5219 44.2613 48.0383 43.8851 47.6819C43.5145 47.3308 43.0129 47.1599 42.4464 47.1127L42.403 47.1091L42.3596 47.113C41.8253 47.1616 41.351 47.3387 41.0084 47.7015C40.6655 48.0646 40.5165 48.5479 40.5002 49.0834L40.4996 49.1038L40.5007 49.1241C40.588 50.8276 41.1292 52.187 42.1879 53.1202C43.2349 54.0431 44.7144 54.4837 46.55 54.5153C48.6254 54.7151 50.484 54.1677 52.0971 52.8773L52.1275 52.8529L52.1537 52.8242C53.1163 51.7715 53.6181 50.5262 53.6482 49.1092L53.6487 49.0839L53.6467 49.0586C53.5254 47.542 52.8505 46.2994 51.6421 45.3606C50.5422 44.4588 49.3707 43.6966 48.1277 43.0748C47.4491 42.7218 46.7563 42.3415 46.0494 41.9338C45.4672 41.5737 45.117 41.0884 44.9728 40.4586C44.9843 40.3205 45.0521 40.1784 45.2421 40.023L45.249 40.0173L45.2558 40.0114C45.8388 39.4983 46.5656 39.2436 47.4739 39.2681L47.4739 39.2683H47.4874C47.9823 39.2683 48.4971 39.3742 49.0348 39.5962C49.2184 40.118 49.3207 40.6473 49.3431 41.1857L49.3436 41.1973L49.3446 41.2089C49.393 41.758 49.573 42.2428 49.9333 42.6031C50.2936 42.9635 50.7785 43.1434 51.3276 43.1919L51.3495 43.1938H51.3715C51.9491 43.1938 52.4718 43.0444 52.8511 42.6651C53.2192 42.297 53.377 41.7872 53.3989 41.2192C53.7198 39.4654 53.2027 37.943 51.8777 36.7084L51.8716 36.7027L51.8654 36.6973C50.6949 35.6768 49.294 35.21 47.6947 35.2925C45.6884 35.1822 43.8372 35.7265 42.1576 36.9138ZM70.3258 37.1535L70.3111 37.1527H70.2965H67.3668V32.6528V32.639L67.3661 32.6251C67.3343 32.0541 67.1719 31.5465 66.8253 31.1614C66.4759 30.7731 65.9928 30.5687 65.4377 30.5034L65.3884 30.4976L65.3389 30.5016C64.748 30.5495 64.23 30.7389 63.8421 31.1173C63.4545 31.4955 63.2518 32.009 63.188 32.5991L63.1851 32.6259V32.6528V37.1527H60.0902H60.0755L60.0609 37.1535C59.5087 37.186 59.0173 37.3578 58.6575 37.7275C58.2997 38.0953 58.1354 38.594 58.1035 39.153L58.1018 39.1819L58.1035 39.2109C58.1358 39.7602 58.3022 40.2497 58.6575 40.6149C59.0127 40.9799 59.4976 41.16 60.0463 41.2085L60.0682 41.2104H60.0902H63.1851V52.1976V52.2232L63.1877 52.2486C63.2501 52.8567 63.4499 53.3896 63.8614 53.7509C64.278 54.1167 64.8253 54.2317 65.4197 54.1835L65.4232 54.1832C65.9684 54.1351 66.4516 53.9604 66.8072 53.6048C67.1647 53.2473 67.3332 52.767 67.3659 52.2278L67.3668 52.2127V52.1976V41.2104H70.2965H70.3185L70.3404 41.2085C70.8895 41.16 71.3744 40.9801 71.7347 40.6197C72.095 40.2594 72.2749 39.7746 72.3234 39.2255L72.3272 39.1821L72.3235 39.1388C72.2756 38.5798 72.0976 38.0856 71.7347 37.7226C71.3698 37.3578 70.8786 37.186 70.3258 37.1535ZM89.3882 37.6094L89.3658 37.5842L89.3402 37.5623C87.6984 36.155 85.7917 35.5329 83.6489 35.7077C81.2293 35.8547 79.2419 36.8547 77.7205 38.698L77.7199 38.6986C76.2407 40.4969 75.4987 42.5791 75.4987 44.9251L75.4988 44.9314C75.5279 47.2611 76.3484 49.2704 77.9529 50.9333C79.549 52.5874 81.502 53.549 83.7931 53.81L83.8012 53.8109L83.8093 53.8116C85.937 53.9841 87.9556 53.5954 89.855 52.6464C90.3065 52.4282 90.6595 52.1077 90.8411 51.6638C91.0209 51.2244 91.0028 50.7369 90.8585 50.2401L90.844 50.1901L90.8196 50.1442C90.5625 49.6623 90.2116 49.2869 89.7411 49.1068C89.2687 48.9259 88.7605 48.974 88.2558 49.1694L88.2435 49.1742L88.2315 49.1796C86.9589 49.7509 85.6547 49.9833 84.3119 49.8818C82.9077 49.711 81.8074 49.2472 80.9778 48.5167C80.2769 47.8995 79.7432 47.069 79.3899 46.0036H90.0065H90.0145L90.0226 46.0033C90.5353 45.9868 90.9985 45.8387 91.3515 45.5058C91.7021 45.1753 91.8843 44.7187 91.9489 44.202L91.9534 44.1654L91.9526 44.1284C91.8947 41.6412 91.0376 39.4613 89.3882 37.6094ZM107.39 36.3852L107.338 36.3572L107.28 36.3422C104.465 35.6125 101.813 35.9457 99.3491 37.3369V37.2394V37.1819L99.3361 37.1258C99.221 36.6328 98.9932 36.211 98.6153 35.9226C98.2378 35.6345 97.7702 35.525 97.2628 35.5414L97.2442 35.542L97.2257 35.544C96.7478 35.5952 96.3227 35.7753 96.0252 36.1365C95.7337 36.4905 95.622 36.9497 95.622 37.446V40.6691V40.6867L95.6232 40.7043C95.788 43.0392 95.9116 45.3602 95.9941 47.6674C96.0761 50.7878 96.0078 53.8527 95.7893 56.8621C95.727 57.4224 95.8111 57.9432 96.0957 58.3796C96.3815 58.8179 96.829 59.1086 97.373 59.2846L97.4797 59.3191L97.5909 59.3048C98.1054 59.2384 98.5554 59.0444 98.8976 58.6927C99.2371 58.3438 99.4289 57.8825 99.5088 57.3549L99.5108 57.3419L99.512 57.3287C99.7304 55.0963 99.8533 52.8637 99.8805 50.6311C101.71 51.7786 103.728 52.179 105.913 51.8233L105.939 51.8191L105.965 51.812C107.76 51.3197 109.149 50.4302 110.082 49.1201C111.01 47.8191 111.453 46.1528 111.456 44.1625C111.61 42.418 111.36 40.876 110.677 39.5604C109.989 38.2374 108.882 37.1819 107.39 36.3852ZM99.5769 42.2584C101.444 40.3344 103.57 39.6478 106.005 40.1463C107.27 41.0247 107.855 42.3131 107.73 44.1054L107.73 44.1054L107.73 44.1157C107.678 45.1816 107.426 46.0087 107.008 46.6293C106.603 47.2321 106.018 47.6737 105.225 47.9472C103.994 48.0913 102.939 47.9127 102.037 47.4372C101.15 46.9698 100.374 46.196 99.721 45.0807V45.0208C99.7696 44.0804 99.7218 43.1594 99.5769 42.2584ZM86.6772 40.5277C87.0736 40.9841 87.3615 41.4834 87.5437 42.0285H80.0887C80.8816 40.5655 82.1341 39.7242 83.8837 39.475C84.9494 39.4823 85.8736 39.8307 86.6772 40.5277Z" fill="#F6C515" stroke="#F6C515"/>
</svg>
