<svg width="108" height="83" viewBox="0 0 108 83" fill="none" xmlns="http://www.w3.org/2000/svg">
<path d="M0.00837054 41.0156C-0.147879 31.6406 1.92243 22.7344 6.21931 14.2969C10.5162 5.85938 17.3131 1.09375 26.6099 0C35.8287 1.17188 42.7037 5.9375 47.2349 14.2969C51.7662 22.6562 53.9146 31.5625 53.6802 41.0156C53.8365 50.4688 51.6881 59.4531 47.2349 67.9688C42.7818 76.4062 35.9068 81.1719 26.6099 82.2656C17.2349 81.1719 10.399 76.3672 6.10212 67.8516C1.88337 59.2578 -0.147879 50.3125 0.00837054 41.0156ZM8.56306 41.0156C8.56306 45.625 9.149 50.1953 10.3209 54.7266C11.4927 59.1797 13.4068 63.2422 16.0631 66.9141C18.7193 70.5859 22.2349 72.6562 26.6099 73.125C30.8287 72.6562 34.2662 70.5859 36.9224 66.9141C39.5787 63.2422 41.4927 59.1797 42.6646 54.7266C43.8365 50.1953 44.4615 45.625 44.5396 41.0156C44.4615 36.3281 43.8365 31.7578 42.6646 27.3047C41.4927 22.8516 39.5787 18.75 36.9224 15C34.2662 11.25 30.8287 9.14062 26.6099 8.67188C22.2349 9.14062 18.7193 11.25 16.0631 15C13.4068 18.75 11.4927 22.8516 10.3209 27.3047C9.149 31.7578 8.56306 36.3281 8.56306 41.0156Z" fill="#F7CC2E"/>
<path d="M57.5006 4.57031C64.1412 2.38281 70.9771 1.01562 78.0084 0.46875C85.1177 -0.15625 91.9537 0.976562 98.5162 3.86719C103.829 8.00781 106.719 13.3594 107.188 19.9219V21.7969C107.188 27.1875 105.313 31.9531 101.563 36.0938C99.8443 37.6562 98.0084 38.9844 96.0552 40.0781C103.711 44.2188 107.422 50.5859 107.188 59.1797V60.1172C107.266 65.8984 105.196 70.7422 100.977 74.6484C94.7271 78.3203 87.9302 80.1172 80.5865 80.0391C73.3209 79.9609 66.2506 79.1016 59.3756 77.4609C56.8756 76.8359 55.6646 75.2344 55.7427 72.6562C56.6021 70 58.4381 68.7891 61.2506 69.0234C66.7974 70.1953 72.4615 71.0156 78.2427 71.4844C84.1021 71.9531 89.6099 70.7422 94.7662 67.8516C97.4224 65.7422 98.4381 63.0469 97.8131 59.7656C97.9693 52.8906 95.0006 48.6328 88.9068 46.9922C82.8912 45.3516 76.9927 44.8828 71.2115 45.5859H62.4224H61.8365C59.1021 45.4297 57.6568 44.0234 57.5006 41.3672V40.7812C57.9693 38.125 59.6099 36.7188 62.4224 36.5625H64.2974C69.6099 36.9531 74.9615 36.7969 80.3521 36.0938C85.7427 35.3125 90.5474 33.2422 94.7662 29.8828C97.3443 27.3828 98.5943 24.2578 98.5162 20.5078C97.9693 16.9922 96.3287 13.9453 93.5943 11.3672C88.2037 9.17969 82.6568 8.4375 76.9537 9.14062C71.3287 9.84375 65.899 11.1328 60.6646 13.0078C58.0084 13.8672 56.1334 13.0469 55.0396 10.5469C54.3365 8.04688 55.1568 6.05469 57.5006 4.57031Z" fill="#F7CC2E"/>
</svg>
