<svg width="109" height="83" viewBox="0 0 109 83" fill="none" xmlns="http://www.w3.org/2000/svg">
<path d="M0.00837054 41.0192C-0.147879 31.6442 1.92243 22.7379 6.21931 14.3004C10.5162 5.86293 17.3131 1.0973 26.6099 0.00355114C35.8287 1.17543 42.7037 5.94105 47.2349 14.3004C51.7662 22.6598 53.9146 31.5661 53.6802 41.0192C53.8365 50.4723 51.6881 59.4567 47.2349 67.9723C42.7818 76.4098 35.9068 81.1754 26.6099 82.2692C17.2349 81.1754 10.399 76.3707 6.10212 67.8551C1.88337 59.2614 -0.147879 50.3161 0.00837054 41.0192ZM8.56306 41.0192C8.56306 45.6286 9.149 50.1989 10.3209 54.7301C11.4927 59.1832 13.4068 63.2457 16.0631 66.9176C18.7193 70.5895 22.2349 72.6598 26.6099 73.1285C30.8287 72.6598 34.2662 70.5895 36.9224 66.9176C39.5787 63.2457 41.4927 59.1832 42.6646 54.7301C43.8365 50.1989 44.4615 45.6286 44.5396 41.0192C44.4615 36.3317 43.8365 31.7614 42.6646 27.3082C41.4927 22.8551 39.5787 18.7536 36.9224 15.0036C34.2662 11.2536 30.8287 9.14418 26.6099 8.67543C22.2349 9.14418 18.7193 11.2536 16.0631 15.0036C13.4068 18.7536 11.4927 22.8551 10.3209 27.3082C9.149 31.7614 8.56306 36.3317 8.56306 41.0192Z" fill="#F7CC2E"/>
<path d="M104.727 53.6754C107.227 53.9098 108.594 55.3161 108.829 57.8942C108.829 60.7067 107.461 62.2301 104.727 62.4645H93.2427V77.3473C93.0865 80.0817 91.7584 81.566 89.2584 81.8004C86.6021 81.6442 85.1177 80.1598 84.8052 77.3473V62.4645H59.3756C58.1256 62.3864 56.9927 61.8395 55.9771 60.8239C55.6646 59.8082 55.5084 58.8317 55.5084 57.8942L61.1334 3.63636C61.6802 1.13636 63.2037 -0.0745739 65.7037 0.00355114C68.2037 0.237926 69.5709 1.60511 69.8052 4.10511C69.4927 4.33949 69.2974 4.57386 69.2193 4.80824C67.5787 21.1364 65.899 37.4254 64.1802 53.6754H84.8052V31.8786C85.1177 29.3004 86.6021 27.9332 89.2584 27.777C91.6802 27.9332 93.0084 29.3004 93.2427 31.8786V53.6754H104.727Z" fill="#F7CC2E"/>
</svg>
