<svg width="1243" height="230" viewBox="0 0 1243 230" fill="none" xmlns="http://www.w3.org/2000/svg">
<path d="M305.62 164.001V98.4709H262V75.9009L306.89 74.3309L311.12 27.3009H337.89V74.3309H412.57V98.4709H337.89V164.071C337.89 189.581 347.53 201.941 376.16 201.941C390.07 201.941 401.37 199.321 412.23 195.601L418.79 217.691C404.54 222.321 388.89 226.331 368.7 226.331C321.37 226.331 305.62 201.231 305.62 164.001Z" fill="#444444"/>
<path d="M458.44 114.141L441.34 114.321V93.1509L490.71 92.4609V225.691H458.44V114.141Z" fill="#444444"/>
<path d="M522.92 77.3309H548.05L550.62 96.5309H551.39C558.94 83.2609 568.78 73.6809 587.05 73.6809C602.18 73.6809 612.02 82.1809 616.37 98.9609C624.59 83.7409 634.74 73.6809 652.94 73.6809C675.21 73.6809 688.17 90.4009 688.17 120.021V225.681H656.77V122.181C656.77 107.161 652.31 99.4909 642.04 99.4909C632.3 99.4909 626.89 106.341 619.49 120.161V225.681H591.6V122.181C591.6 107.161 587.49 99.4909 577.22 99.4909C567.54 99.4909 561.2 106.341 554.33 120.161V225.681H522.93V77.3309H522.92Z" fill="#444444"/>
<path d="M710.82 77.3309H735.95L738.52 96.5309H739.29C746.84 83.2609 756.68 73.6809 774.95 73.6809C790.08 73.6809 799.92 82.1809 804.27 98.9609C812.49 83.7409 822.64 73.6809 840.84 73.6809C863.11 73.6809 876.07 90.4009 876.07 120.021V225.681H844.67V122.181C844.67 107.161 840.21 99.4909 829.94 99.4909C820.2 99.4909 814.79 106.341 807.39 120.161V225.681H779.5V122.181C779.5 107.161 775.39 99.4909 765.12 99.4909C755.44 99.4909 749.1 106.341 742.23 120.161V225.681H710.83V77.3309H710.82Z" fill="#444444"/>
<path d="M889.85 151.261C889.85 102.951 928.68 73.6909 971.04 73.6909C1017.48 73.6909 1043.93 102.281 1043.93 143.711C1043.93 150.101 1043.1 156.251 1042.45 160.141H912.21V137.991H1022.35L1015.36 145.371C1015.36 113.231 998.77 97.1109 971.93 97.1109C945.09 97.1109 921.5 116.281 921.5 151.261C921.5 186.241 945.89 205.661 979.91 205.661C997.61 205.661 1011.91 200.651 1026.16 192.601L1037.45 211.721C1021.17 221.781 1000.12 229.331 975.82 229.331C927.8 229.331 889.85 200.681 889.85 151.261Z" fill="#444444"/>
<path d="M1052.56 77.3309H1084.2L1100.69 158.871C1103.36 173.061 1105.39 186.271 1107.33 200.581H1108.57C1110.45 186.271 1113.71 172.711 1117.22 158.871L1134.24 89.2709H1162.86L1179.47 158.871C1182.91 173.061 1186.76 186.271 1188.77 200.581H1190.07C1192.54 186.271 1193.92 173.071 1196.53 158.871L1212.78 77.3309H1242.48L1211.09 225.681H1171.19L1155.47 160.791C1153 149.791 1150.59 135.271 1148.18 116.841H1146.88C1144.59 134.081 1142.3 148.251 1139.71 160.791L1124.51 225.681H1084.85L1052.57 77.3309H1052.56Z" fill="#444444"/>
<path d="M470.17 82.2009C463.68 82.2009 457.67 82.4009 452.13 79.8209C446.6 77.2409 442.34 73.6909 439.36 69.1709C436.27 64.4909 434.73 59.2909 434.73 53.5609C434.73 47.8309 436.27 42.9109 439.36 38.5509C442.66 33.9509 446.97 30.4009 452.29 27.9009C457.82 25.3209 463.78 25.5209 470.17 25.5209C476.56 25.5209 482.51 25.3209 488.05 27.9009C493.37 30.4009 497.68 33.9509 500.98 38.5509C504.06 42.9109 505.61 47.9109 505.61 53.5609C505.61 59.2109 504.07 64.4909 500.98 69.1709C498 73.6909 493.74 77.2409 488.21 79.8209C482.68 82.4009 476.66 82.2009 470.17 82.2009Z" fill="#444444"/>
<path d="M470.17 14.1709C468.61 14.1709 467.17 14.2209 465.84 13.5709C464.51 12.9209 463.49 12.0409 462.78 10.9109C462.04 9.74089 461.67 8.44089 461.67 7.01089C461.67 5.58089 462.04 4.35089 462.78 3.26089C463.57 2.11089 464.61 1.22089 465.88 0.600889C467.21 -0.0491111 468.64 0.000888887 470.17 0.000888887C471.7 0.000888887 473.13 -0.0491111 474.46 0.600889C475.74 1.23089 476.77 2.11089 477.56 3.26089C478.3 4.35089 478.67 5.60089 478.67 7.01089C478.67 8.42089 478.3 9.74089 477.56 10.9109C476.84 12.0409 475.82 12.9309 474.5 13.5709C473.17 14.2209 471.73 14.1709 470.17 14.1709Z" fill="#444444"/>
<path d="M434.74 28.3509C433.18 28.3509 431.74 28.4009 430.41 27.7509C429.08 27.1009 428.06 26.2209 427.35 25.0909C426.61 23.9209 426.24 22.6209 426.24 21.1909C426.24 19.7609 426.61 18.5309 427.35 17.4409C428.14 16.2909 429.18 15.4009 430.45 14.7809C431.78 14.1309 433.21 14.1809 434.74 14.1809C436.27 14.1809 437.7 14.1309 439.03 14.7809C440.31 15.4109 441.34 16.2909 442.13 17.4409C442.87 18.5309 443.24 19.7809 443.24 21.1909C443.24 22.6009 442.87 23.9209 442.13 25.0909C441.41 26.2209 440.39 27.1109 439.07 27.7509C437.74 28.4009 436.3 28.3509 434.74 28.3509Z" fill="#444444"/>
<path d="M505.61 28.3509C504.05 28.3509 502.61 28.4009 501.28 27.7509C499.95 27.1009 498.93 26.2209 498.22 25.0909C497.48 23.9209 497.11 22.6209 497.11 21.1909C497.11 19.7609 497.48 18.5309 498.22 17.4409C499.01 16.2909 500.05 15.4009 501.32 14.7809C502.65 14.1309 504.08 14.1809 505.61 14.1809C507.14 14.1809 508.57 14.1309 509.9 14.7809C511.18 15.4109 512.21 16.2909 513 17.4409C513.74 18.5309 514.11 19.7809 514.11 21.1909C514.11 22.6009 513.74 23.9209 513 25.0909C512.28 26.2209 511.26 27.1109 509.94 27.7509C508.61 28.4009 507.17 28.3509 505.61 28.3509Z" fill="#444444"/>
<path d="M107.93 221.802C91.83 221.802 76.93 222.302 63.21 215.902C49.49 209.502 38.93 200.702 31.55 189.492C23.9 177.892 20.07 164.992 20.07 150.782C20.07 136.572 23.89 124.372 31.55 113.572C39.72 102.172 50.41 93.3721 63.6 87.1621C77.31 80.7621 92.09 81.2621 107.92 81.2621C123.75 81.2621 138.52 80.7621 152.24 87.1621C165.43 93.3621 176.11 102.162 184.29 113.572C191.94 124.372 195.77 136.782 195.77 150.782C195.77 164.782 191.94 177.892 184.29 189.492C176.9 200.702 166.35 209.502 152.63 215.902C138.91 222.302 124 221.802 107.91 221.802H107.93Z" fill="#444444"/>
<path d="M108.93 68.142C105.07 68.142 101.49 68.262 98.2 66.662C94.91 65.062 92.37 62.862 90.6 60.062C88.76 57.162 87.85 53.932 87.85 50.382C87.85 46.832 88.77 43.782 90.6 41.082C92.56 38.232 95.13 36.032 98.29 34.482C101.58 32.882 105.13 33.002 108.93 33.002C112.73 33.002 116.27 32.882 119.57 34.482C122.74 36.032 125.3 38.232 127.26 41.082C129.1 43.782 130.01 46.882 130.01 50.382C130.01 53.882 129.09 57.162 127.26 60.062C125.49 62.862 122.95 65.062 119.66 66.662C116.37 68.262 112.79 68.142 108.93 68.142Z" fill="#444444"/>
<path d="M21.08 103.282C17.22 103.282 13.64 103.402 10.35 101.802C7.06 100.202 4.52 98.0021 2.75 95.2021C0.91 92.3021 0 89.0721 0 85.5221C0 81.9721 0.92 78.9221 2.75 76.2221C4.71 73.3721 7.28 71.1721 10.44 69.6221C13.73 68.0221 17.28 68.1421 21.08 68.1421C24.88 68.1421 28.42 68.0221 31.72 69.6221C34.89 71.1721 37.45 73.3721 39.41 76.2221C41.25 78.9221 42.16 82.0221 42.16 85.5221C42.16 89.0221 41.24 92.3021 39.41 95.2021C37.64 98.0021 35.1 100.202 31.81 101.802C28.52 103.402 24.94 103.282 21.08 103.282Z" fill="#444444"/>
<path d="M196.78 103.282C192.92 103.282 189.34 103.402 186.05 101.802C182.76 100.202 180.22 98.0021 178.45 95.2021C176.61 92.3021 175.7 89.0721 175.7 85.5221C175.7 81.9721 176.62 78.9221 178.45 76.2221C180.41 73.3721 182.98 71.1721 186.14 69.6221C189.43 68.0221 192.98 68.1421 196.78 68.1421C200.58 68.1421 204.12 68.0221 207.42 69.6221C210.59 71.1721 213.15 73.3721 215.11 76.2221C216.95 78.9221 217.86 82.0221 217.86 85.5221C217.86 89.0221 216.94 92.3021 215.11 95.2021C213.34 98.0021 210.8 100.202 207.51 101.802C204.22 103.402 200.64 103.282 196.78 103.282Z" fill="#444444"/>
<path d="M96.05 168.742C97.74 160.452 98.99 150.832 99.78 139.872C100.47 130.202 100.81 122.132 100.81 115.682V113.182L100.73 102.932C102.29 102.832 104.04 102.772 105.97 102.772H106.91C109.2 102.772 111.4 102.842 113.5 102.982L116.51 103.142C115.13 108.272 114.05 115.482 113.26 124.752C112.47 134.032 112.02 142.032 111.91 148.752L111.71 150.402C116.84 150.852 121.78 151.082 126.54 151.082C127.07 151.052 127.57 151.032 128.05 151.032C133.29 150.962 137.75 150.792 141.46 150.512L147.09 150.092L146.74 168.722C144.62 168.582 139.32 168.512 130.83 168.512C122.34 168.512 114.42 168.542 107.06 168.612L96.04 168.712L96.05 168.742Z" fill="#E7C54E"/>
</svg>
